<svg width="214" height="213" viewBox="0 0 214 213" fill="none" xmlns="http://www.w3.org/2000/svg">
<g style="mix-blend-mode:multiply">
<g style="mix-blend-mode:multiply">
<path d="M183.615 176.094C197.774 176.094 209.252 173.726 209.252 170.804C209.252 167.883 197.774 165.515 183.615 165.515C169.456 165.515 157.978 167.883 157.978 170.804C157.978 173.726 169.456 176.094 183.615 176.094Z" fill="#14A6D3"/>
</g>
</g>
<g style="mix-blend-mode:multiply">
<g style="mix-blend-mode:multiply">
<path d="M108.161 202.965C166.338 202.965 213.5 193.359 213.5 181.51C213.5 169.661 166.338 160.055 108.161 160.055C49.9833 160.055 2.82129 169.661 2.82129 181.51C2.82129 193.359 49.9833 202.965 108.161 202.965Z" fill="#14A6D3"/>
</g>
</g>
<path d="M133.205 81.2841C135.659 74.2284 149.31 86.6576 151.812 81.9789C155.715 74.6801 129.433 57.9982 134.978 36.9924C137.244 28.4116 148.527 44.5859 150.588 41.0451C152.854 37.1538 147.06 2.54434 159.151 0.117868C171.241 -2.3086 171.061 33.5012 173.865 36.3729C176.418 38.9887 184.808 18.8628 188.348 26.2798C197.014 44.4332 174.176 70.9737 179.102 76.5021C182.259 80.045 193.53 62.6123 197.014 68.4763C198.469 70.9243 200.416 77.483 198.869 82.6995C194.163 98.564 178.555 124.573 169.22 126.449C159.886 128.323 140.687 109.3 133.64 95.7955C131.324 91.3556 132.179 84.2354 133.203 81.2884L133.205 81.2841Z" fill="#62D5FA"/>
<path d="M169.822 126.324L160.018 11.0046L168.618 126.565C168.65 126.991 168.945 127.284 169.277 127.219C169.61 127.155 169.854 126.759 169.822 126.333V126.322V126.324Z" fill="#4673D9"/>
<path d="M165.111 69.1751L138.003 40.4447L164.297 70.384C164.542 70.6615 164.924 70.6185 165.153 70.2894C165.381 69.9603 165.369 69.4698 165.127 69.1923C165.123 69.188 165.117 69.1816 165.111 69.1751Z" fill="#4673D9"/>
<path d="M167.922 105.732L138.162 87.1955L167.329 107.13C167.617 107.328 167.988 107.177 168.156 106.794C168.324 106.411 168.228 105.943 167.94 105.745C167.934 105.74 167.926 105.736 167.922 105.732Z" fill="#4673D9"/>
<path d="M165.194 70.2034L185.962 30.8163L164.216 69.3559C164.014 69.713 164.068 70.197 164.334 70.4379C164.601 70.6788 164.981 70.5842 165.181 70.2271C165.185 70.2206 165.189 70.212 165.194 70.2056V70.2034Z" fill="#4673D9"/>
<path d="M168.021 106.991L193.142 76.1586L167.228 105.872C166.972 106.167 166.938 106.659 167.152 106.973C167.366 107.287 167.749 107.305 168.005 107.01C168.009 107.004 168.017 106.997 168.021 106.991Z" fill="#4673D9"/>
<path d="M157.983 99.7363L142.781 100.373L157.959 100.515C158.125 100.515 158.27 100.343 158.28 100.128C158.29 99.9127 158.163 99.7363 157.997 99.7363C157.993 99.7363 157.989 99.7363 157.985 99.7363H157.983Z" fill="#4673D9"/>
<path d="M174.193 99.0173L175.13 84.2047L173.592 98.9765C173.57 99.1916 173.686 99.3787 173.852 99.3959C174.018 99.4132 174.171 99.254 174.193 99.0389C174.193 99.0324 174.193 99.0238 174.193 99.0195V99.0173Z" fill="#4673D9"/>
<path d="M156.297 60.1013L143.885 58.6149L156.193 60.8735C156.358 60.9037 156.516 60.7552 156.548 60.5423C156.58 60.3293 156.474 60.1314 156.309 60.1013C156.305 60.1013 156.299 60.1013 156.295 60.0991L156.297 60.1013Z" fill="#4673D9"/>
<path d="M172.523 56.0107L173.096 42.392L171.92 55.9892C171.902 56.2043 172.02 56.3872 172.186 56.4001C172.353 56.413 172.503 56.2473 172.521 56.0344C172.521 56.0279 172.521 56.0193 172.521 56.0129L172.523 56.0107Z" fill="#4673D9"/>
<path d="M162.743 43.4167L157.161 31.4199L162.478 43.6254C162.518 43.7179 162.611 43.7459 162.683 43.6899C162.757 43.634 162.783 43.5135 162.743 43.421V43.4167Z" fill="#4673D9"/>
<path d="M181.301 90.6284L190.35 88.4213L181.24 89.8583C181.074 89.8841 180.948 90.0798 180.96 90.2928C180.972 90.5058 181.116 90.6585 181.283 90.6327C181.289 90.6327 181.297 90.6305 181.303 90.6284H181.301Z" fill="#4673D9"/>
<path d="M167.971 64.2964L180.362 59.0455L167.825 63.5521C167.663 63.6102 167.561 63.8253 167.597 64.0339C167.633 64.2404 167.795 64.3609 167.959 64.3028C167.963 64.3028 167.969 64.2985 167.973 64.2964H167.971Z" fill="#4673D9"/>
<path d="M151.64 54.9663L149.031 46.5705L151.067 55.2589C151.115 55.4611 151.283 55.5665 151.444 55.4955C151.604 55.4224 151.696 55.2008 151.648 54.9964C151.646 54.9857 151.642 54.9749 151.64 54.9663Z" fill="#4673D9"/>
<path d="M161.759 31.9335L163.171 24.9682L161.613 31.8905C161.601 31.9421 161.625 31.9959 161.665 32.0067C161.705 32.0196 161.747 31.9873 161.759 31.9335Z" fill="#4673D9"/>
<path d="M196.611 117.604C196.601 117.813 196.593 118.032 196.583 118.243C196.573 118.432 196.565 118.611 196.555 118.802C195.441 140.268 191.206 153.36 182.014 167.467H159.905C150.703 153.36 146.468 140.268 145.364 118.802C145.346 118.404 145.326 118.004 145.308 117.606H196.611V117.604Z" fill="#F3D078"/>
<g style="mix-blend-mode:multiply">
<path d="M196.611 117.604C196.593 118.002 196.573 118.402 196.555 118.8H145.363C145.345 118.402 145.325 118.002 145.307 117.604H196.611Z" fill="#F89D34"/>
</g>
<path d="M199.899 114.54H142.011V118.109H199.899V114.54Z" fill="#F89D34"/>
<g style="mix-blend-mode:multiply">
<g style="mix-blend-mode:multiply">
<path d="M196.583 118.245C196.573 118.434 196.565 118.613 196.555 118.804C195.441 140.27 191.206 153.362 182.015 167.469H159.906C179.969 159.206 189.527 144.112 196.583 118.245Z" fill="#FEC73D"/>
</g>
</g>
<path d="M150.898 148.499C150.434 151.874 149.616 155.123 148.492 158.22C145.173 167.362 139.177 175.16 131.652 180.869C128.701 183.111 125.514 185.03 122.162 186.583C119.095 188.005 115.887 189.119 112.598 189.893C90.3825 195.125 62.6358 195.151 42.3176 190.143C34.0256 188.097 17.2294 177.944 14.619 169.249C12.4553 162.043 10.496 141.17 10.7725 133.607C12.0927 97.6446 27.2121 70.3877 34.0897 62.506C39.597 56.1924 49.1591 55.7278 56.4454 58.122C58.2845 58.7243 59.8311 59.5073 61.3877 60.5785C61.8024 60.8625 62.2091 61.1873 62.6157 61.553C68.2432 66.6146 73.9969 79.4697 97.232 97.7564C104.362 103.367 115.996 102.624 126.9 109.695C127.954 110.379 129.014 111.089 130.075 111.833C131.536 112.853 133.002 113.935 134.475 115.09C137.091 117.142 139.539 119.124 141.717 121.197C148.572 127.726 152.735 135.158 150.902 148.499H150.898Z" fill="#62D5FA"/>
<g style="mix-blend-mode:multiply">
<path d="M150.896 148.5C148.03 169.333 131.754 185.383 112.594 189.896C90.3786 195.128 62.6319 195.153 42.3137 190.146C34.0217 188.1 17.2254 177.947 14.615 169.252C12.4514 162.045 10.4921 141.175 10.7686 133.61C12.0888 97.6495 27.2082 70.3926 34.0858 62.5087C39.5931 56.1952 49.1552 55.7305 56.4414 58.1247C58.2805 58.7292 59.8271 59.5122 61.3838 60.5813C61.7965 60.8652 62.2031 61.1901 62.6098 61.5558C56.4895 60.975 39.3006 58.0344 28.7528 78.0506C19.5654 95.4854 23.3417 134.507 26.7675 148.28C37.6258 191.946 107.588 191.047 128.389 167.619C135.825 159.243 146.988 147.127 144.47 132.956C143.238 126.023 137.548 119.26 128.342 110.692C128.342 110.692 128.344 110.692 128.346 110.692C128.919 111.064 129.494 111.445 130.071 111.834C131.53 112.854 132.998 113.936 134.471 115.091C137.085 117.141 139.535 119.122 141.713 121.196C148.568 127.724 152.731 135.159 150.896 148.498V148.5Z" fill="#9FE2F7"/>
</g>
<path d="M51.5869 67.6909C47.6824 68.2825 29.2914 74.7918 30.3031 90.1121C30.808 97.7464 46.1839 127.294 58.2622 145.581C65.6606 156.784 79.3737 155.637 93.0267 155.287C108.348 154.895 129.208 140.896 129.003 130.684C128.677 114.325 101.735 115.689 90.6146 109.326C70.2544 97.6776 70.9235 64.7589 51.5849 67.6888L51.5869 67.6909Z" fill="#00ABE1"/>
<path d="M138.742 125.776C129.481 123.212 117.759 123.371 109.062 127.944C114.295 122.951 124.09 120.189 131.953 121.852C134.573 122.405 136.695 124.513 138.742 125.778V125.776Z" fill="#2781B5"/>
<path d="M73.0688 167.111C78.1714 158.425 86.804 149.908 96.0555 146.832C89.0578 147.052 80.1668 152.255 75.5049 159.255C73.9503 161.589 73.754 164.685 73.0709 167.111H73.0688Z" fill="#00ABE1"/>
<path d="M113.001 129.446C114.928 129.317 116.827 129.087 119.6 129.04C128.185 128.872 133.025 130.35 138.742 135.054C134.673 127.639 126.662 125.135 119.62 126.826C116.978 127.461 115.165 128.564 113.001 129.446Z" fill="#2781B5"/>
<path d="M48.6057 122.994C48.1029 122.84 44.4868 121.454 44.3506 121.401C38.6089 118.221 31.7253 117.496 29.9443 116.918C35.4216 115.147 44.8675 118.309 48.6057 122.992V122.994Z" fill="#00ABE1"/>
<path d="M54.9153 129.147C52.7056 128.504 50.2755 128.407 47.6611 127.695C36.7688 124.726 33.7277 126.374 25.4297 126.798C34.4609 120.489 46.4431 121.663 54.9173 129.147H54.9153Z" fill="#00ABE1"/>
<path d="M38.6158 98.9391C37.5781 98.24 36.306 98.3153 35.2722 97.5559C32.0828 95.2091 27.9339 94.682 25.2854 93.6022C28.1963 93.3311 32.8041 93.5419 35.8051 95.5059C37.0672 96.3319 37.9487 97.799 38.6158 98.9413V98.9391Z" fill="#00ABE1"/>
<path d="M39.276 96.2665C38.5889 95.3587 36.9161 93.9433 35.1872 91.6007C31.6772 86.8446 30.2509 86.5176 27.8708 85.3345C33.1357 86.2121 37.9077 90.9295 39.276 96.2665Z" fill="#00ABE1"/>
<path d="M73.3005 101.91C76.3216 97.1606 81.1337 93.2111 84.0847 90.1135C79.7514 91.6795 73.9877 97.0358 73.3005 101.91Z" fill="#00ABE1"/>
<path d="M70.3748 101.631C70.8236 99.8911 70.461 100.965 71.4987 97.2237C73.4179 90.8327 76.2748 87.0618 77.3526 85.3345C72.5264 88.6192 69.5594 95.533 70.3748 101.631Z" fill="#2781B5"/>
<path d="M89.0132 118.151C89.1113 115.251 89.5421 111.773 91.275 109.192C93.5348 105.825 97.5455 103.706 101.194 103.564C95.1615 106.836 92.2246 111.274 89.0132 118.151Z" fill="#00ABE1"/>
<path d="M90.7866 121.367C91.5739 118.874 92.3372 115.484 94.553 113.313C100.545 107.438 111.369 104.556 118.109 107.518C111.057 106.548 102.825 111.233 96.8729 116.054C94.4288 118.035 92.0267 119.302 90.7866 121.367Z" fill="#00ABE1"/>
<path d="M96.092 119.257C98.0053 117.529 99.7342 115.464 102.05 114.227C106.522 111.838 111.893 111.326 115.965 113.845C107.423 112.636 101.81 117.28 96.092 119.257Z" fill="#2781B5"/>
<path d="M148.491 158.221C145.171 167.363 139.175 175.161 131.65 180.87C131.819 176.458 127.575 159.78 104.45 150.451C101.255 149.162 122.359 137.557 123.853 134.504C125.782 130.559 128.357 126.124 132.486 125.683C135.389 125.371 138.185 127.296 139.902 129.83C141.619 132.364 142.458 135.444 143.27 138.454C144.478 142.945 145.688 147.441 146.896 151.935C147.451 154.002 148.008 156.104 148.493 158.218L148.491 158.221Z" fill="#00ABE1"/>
<path d="M183.534 180.533C180.731 185.076 177.155 188.948 172.898 191.899C170.484 189.171 168.407 186.151 166.085 183.329C167.936 180.999 169.913 178.588 171.764 176.316C172.163 175.826 172.726 175.219 173.123 175.107C174.435 174.742 181.465 179.879 183.534 180.533Z" fill="#DE9D73"/>
<path d="M170.966 180.073C161.812 168.902 145.625 143.726 132.665 135.106C117.101 124.755 97.1634 129.397 80.7277 124.146C74.6515 122.206 81.2185 114.01 82.1721 110.912C92.5236 113.348 100.573 117.71 113.689 118.392C126.212 119.042 132.657 120.134 144.757 128.317C152.817 133.768 173.949 159.257 182.261 167.685C179.085 172.321 174.626 176.023 170.966 180.073Z" fill="#446EB1"/>
<path d="M129.938 156.296C133.41 160.351 134.057 163.337 138.034 167.983C142.205 172.857 160.169 185.822 166.478 188.978C169.709 185.872 171.999 181.909 176.168 179.879C167.894 169.003 161.68 163.347 151.453 151.959C147.099 147.111 144.351 136.587 134.524 129.891C129.768 126.649 111.401 123.289 102.122 124.705C100.278 124.986 79.8881 122.676 77.5582 120.11C75.4106 117.744 86.4532 114.549 86.7717 110.864C87.0482 107.659 85.3774 107.965 83.4201 106.108C70.2759 115.177 65.6482 118.157 59.9646 133.21C63.3403 137.327 67.2729 141.701 73.3992 144.43C92.0446 152.738 112.469 135.897 129.938 156.294V156.296Z" fill="#547DBF"/>
<path d="M188.121 171.489C185.285 176.02 181.789 179.657 177.57 182.669C175.224 179.784 172.954 176.831 170.592 173.959C172.499 171.627 174.488 169.203 176.396 166.923C176.806 166.432 177.341 165.838 177.79 165.727C179.276 165.361 185.946 170.724 188.121 171.487V171.489Z" fill="#DE9D73"/>
<path d="M177.784 190.443C180.716 189.931 183.355 188.655 186.027 187.128C188.7 185.601 191.338 183.843 194.183 182.516C195.225 182.03 196.463 181.638 197.557 182.284C197.639 185.37 196.311 188.049 194.065 189.862C191.821 191.675 189.313 192.31 186.705 192.762C184.098 193.213 181.69 193.25 179.168 193.87C177.699 194.231 176.391 194.838 174.837 194.7C173.192 194.554 171.954 193.923 170.798 192.387C170.403 191.865 169.468 189.632 170.177 188.829C170.457 188.513 171.347 189.473 171.836 189.655C173.729 190.372 175.652 190.811 177.78 190.438L177.784 190.443Z" fill="#446EB1"/>
<path d="M189.901 191.248C187.247 192.496 184.701 192.866 181.962 193.248C179.223 193.631 176.695 193.969 174.095 194.959C179.452 195.754 184.5 194.412 189.687 192.939C191.871 192.317 194.219 191.657 196.384 190.572C198.55 189.486 200.665 187.879 202.146 185.801C202.939 184.687 203.522 183.196 202.677 182.002C201.96 180.991 200.686 181.127 199.63 181.462C198.574 181.798 197.534 182.521 196.751 183.347C195.968 184.173 195.887 185.119 195.367 186.126C194.171 188.436 192.085 190.222 189.899 191.248H189.901Z" fill="#FEFAF7"/>
<path d="M174.74 179.185C177.749 178.232 180.279 176.537 182.533 174.244C183.691 173.065 184.631 171.637 186.133 170.957C187.564 170.31 188.906 170.46 190.465 170.764C194.798 171.602 199.027 173.209 203.521 172.437C204.56 172.259 205.618 171.871 206.66 171.919C207.702 171.968 208.815 172.291 209.232 173.409C209.813 174.967 208.868 176.436 207.798 177.501C206.173 179.118 204.118 180.422 202.186 181.511C196.771 184.561 191.192 187.198 185.616 189.76C183.93 190.534 182.583 191.32 180.708 191.277C178.332 191.223 175.872 190.205 174.876 187.555C173.943 185.071 174.434 181.84 174.74 179.183V179.185Z" fill="#446EB1"/>
<path d="M175.001 187.138C175.788 185.721 176.984 184.953 178.274 184.277C182.121 182.268 185.63 180.556 189.623 178.691C194.714 176.314 200.169 173.799 205.71 172.504C206.774 172.255 207.962 172.046 209.024 172.375C210.086 172.704 211.025 173.546 210.993 174.81C210.957 176.217 209.879 177.123 208.862 177.917C203.565 182.042 196.611 183.55 190.801 186.151C187.231 187.749 185.388 191 181.628 191.411C179.733 191.617 178.14 191.353 176.335 191.148C175.505 191.054 175.033 191.045 174.664 190.169C174.295 189.294 174.556 187.947 175.005 187.141L175.001 187.138Z" fill="#FEFAF7"/>
<path d="M181.463 187.498C180.251 187.863 179.149 188.029 177.989 188.627C176.827 189.225 175.915 190.124 175.304 191.378C176.921 192.927 178.774 193.241 180.852 192.714C182.929 192.187 184.5 191.107 186.483 190.206C190.49 188.384 194.689 187.631 198.928 186.194C203.169 184.757 207.464 182.602 210.413 178.786C211.11 177.884 211.734 176.492 210.648 175.615C209.86 174.978 208.602 175.505 207.721 175.735C205.421 176.338 203.079 177.209 200.949 178.192C196.616 180.19 192.483 182.707 188.268 184.796C185.94 185.949 183.863 186.775 181.463 187.5V187.498Z" fill="#446EB1"/>
<path d="M161.335 163.111C162.962 164.498 170.765 181.049 172.14 180.139C173.514 179.229 175.123 175.71 176.814 174.107C178.504 172.507 180.436 169.788 182.249 168.071C177.198 162.416 168.175 161.702 161.335 163.111Z" fill="#446EB1"/>
<path d="M46.1997 73.4341C46.991 73.6277 47.2575 73.5245 47.4678 73.6041C50.5651 74.7657 50.4368 74.9679 59.4941 78.7496C60.4477 73.518 61.832 68.379 63.629 63.4099C60.8984 62.87 58.1598 62.3279 55.3872 62.1838C53.1434 62.0676 50.8696 62.216 48.6899 62.8291C48.3353 62.928 47.5339 63.0205 47.2855 63.3303C47.0071 63.6766 47.0912 64.5263 47.0552 64.963C46.943 66.2709 46.8308 67.5788 46.7206 68.8888C46.5904 70.4032 46.3319 71.924 46.2037 73.4384L46.1997 73.4341Z" fill="#DE9D73"/>
<path d="M81.6552 102.228C83.2439 105.052 84.9087 107.963 87.4369 109.841C89.849 111.631 92.3372 115.036 95.208 115.668C97.4217 116.154 100.106 113.909 102.318 114.395C103.973 114.758 105.63 115.124 107.284 115.488C107.334 115.281 107.383 115.072 107.433 114.866C108.24 115.384 109.047 115.903 109.855 116.419C110.173 115.832 110.492 115.242 110.81 114.655C111.413 115.165 112.225 115.38 112.98 115.227C113.353 113.173 113.833 112.405 112.451 110.929C110.792 109.159 107.843 108.341 105.563 108.896C101.162 109.966 96.4321 109.408 92.3492 107.341C88.2663 105.274 84.8586 101.71 82.8252 97.3837C81.3106 94.1591 80.7757 90.3882 78.8004 87.4648C72.4998 78.144 65.9127 77.5331 63.4225 76.8275C62.1844 78.7184 71.4881 84.1542 72.5919 86.1225C75.603 91.496 78.6341 96.8588 81.6552 102.226V102.228Z" fill="#F3D078"/>
<path d="M52.615 124.238C44.8399 112.828 33.575 81.3425 33.575 81.3425C40.1941 75.5452 46.3565 72.5508 50.6878 72.8133C53.4424 72.9789 56.5536 73.8673 59.5667 75.0827C66.1518 77.735 72.2621 81.9512 73.1476 83.627C74.4397 86.0728 75.7379 88.4906 76.8217 91.0505C81.5677 102.269 88.5635 111.802 98.38 118.185C94.2952 122.001 95.0444 121.674 77.4388 128.633C74.2174 129.906 60.8128 140.982 59.7871 136.803C58.1042 132.305 54.0534 126.348 52.615 124.24V124.238Z" fill="#CE4F37"/>
<path d="M113.637 124.871L85.1454 124.103C84.923 124.097 84.8249 123.286 85.0352 123.208L112.377 113.518C112.652 113.417 112.938 113.363 113.229 113.363L137.329 113.29L113.637 124.871Z" fill="#B9D2ED"/>
<path d="M113.666 124.343L85.1741 123.575C84.9517 123.569 84.9036 123.235 85.114 123.158L112.408 112.99C112.682 112.889 112.969 112.835 113.259 112.835L137.36 112.762L113.668 124.343H113.666Z" fill="#F2F8FE"/>
<path d="M113.794 123.037L97.0581 122.587C96.9278 122.583 96.8998 122.387 97.022 122.342L113.055 116.368C113.215 116.308 113.384 116.278 113.554 116.278L127.712 116.235L113.794 123.039V123.037Z" fill="#3E639F"/>
<path d="M112.463 110.344C110.804 108.574 107.847 108.344 105.565 108.897C104.574 109.138 103.568 109.295 102.554 109.372C102.348 111.016 101.987 112.629 101.561 114.227C101.813 114.283 102.067 114.339 102.32 114.395C103.975 114.759 105.631 115.124 107.286 115.488C107.336 115.281 107.384 115.073 107.434 114.866C108.242 115.385 110.75 116.303 111.297 116.312C112.078 116.14 111.648 114.946 111.319 114.09C111.65 114.946 112.681 115.572 113.437 115.421C114.05 115.298 113.843 111.82 112.461 110.344H112.463Z" fill="#DE9D73"/>
<path d="M52.5704 79.8389C49.2068 77.0445 49.1387 76.7133 46.1997 73.435C47.9547 72.9144 49.5013 72.7401 50.6853 72.8133C53.4399 72.9789 56.5511 73.8673 59.5642 75.0827C61.1068 77.3737 61.6858 77.7566 62.0965 80.0819C62.8617 84.4186 56.6473 83.2247 52.5684 79.8389H52.5704Z" fill="#DE9D73"/>
<path d="M70.2704 53.3207C70.2363 53.6756 70.1963 54.0241 70.1522 54.3747C70.1402 54.4715 70.1282 54.5683 70.1141 54.6673C69.469 59.5353 68.0286 64.2807 65.885 68.6195C65.869 68.6496 65.857 68.6797 65.8409 68.7098C65.7428 68.9077 65.6446 69.1056 65.5444 69.2992C65.1878 69.9941 64.8092 70.6759 64.4165 71.3493C63.5952 72.7518 62.6736 74.1264 61.4195 75.0879C59.2238 76.7722 56.1947 76.9379 53.6865 75.8752C51.1743 74.8061 49.1629 72.6292 47.8206 70.1124C46.4743 67.5998 45.7551 64.7518 45.2964 61.8929C45.1541 60.9916 45.0339 60.0881 44.9418 59.1782C44.8015 57.8144 44.7174 56.442 44.6893 55.0674C44.6633 53.6713 44.6994 52.2882 44.7975 50.9028C44.9718 48.3408 45.3424 45.8004 45.8453 43.2792C45.8553 43.2298 45.8653 43.1825 45.8773 43.1373C46.0697 42.3112 46.4623 41.6336 46.9872 41.0808C48.2573 39.7407 50.2948 39.1491 52.0718 39.0544C54.5379 38.9168 56.968 39.5772 59.4061 39.9859C62.0265 40.4269 64.8312 40.6377 66.9648 42.3306C68.6417 43.6665 69.6754 45.7832 70.1041 47.9795C70.4467 49.7305 70.4367 51.5353 70.2664 53.3228L70.2704 53.3207Z" fill="#DE9D73"/>
<path d="M70.2116 54.2092C70.2596 53.9962 70.2797 53.6886 70.2737 53.3208C70.2316 51.3439 69.4142 47.5988 68.6229 47.1664C67.9538 46.7964 66.7698 47.6031 66.1247 47.7752C60.7276 49.2229 55.3405 44.0495 54.1726 45.8758C53.3893 47.1019 55.4387 48.6378 55.034 50.0597C54.5132 51.8731 51.8967 50.9072 50.7388 51.9936C49.5388 53.1229 49.082 57.7177 50.9512 61.9296C51.8447 63.9387 53.4834 64.8444 54.2547 66.9073C54.3128 67.06 54.3669 67.2106 54.421 67.3633C54.6594 68.0431 54.8597 68.7443 55.0681 69.4392C55.4327 70.6352 55.8294 71.8119 56.5025 72.8358C57.5663 74.4513 59.6137 75.5569 61.1744 74.5072C63.2539 73.1133 64.1974 71.4397 65.5117 69.2671C65.6198 69.0864 65.732 68.9014 65.8462 68.7121C65.7481 68.91 65.6499 69.1079 65.5497 69.3015C65.1931 69.9963 64.8145 70.6782 64.4218 71.3515C63.6004 72.754 62.6789 74.1286 61.4248 75.0902C59.2291 76.7745 56.2 76.9401 53.6918 75.8775C51.1795 74.8084 49.1681 72.6314 47.8259 70.1146C46.4796 67.6021 45.7604 64.754 45.3016 61.8952C45.1594 60.9939 45.0392 60.0904 44.947 59.1805C44.8068 57.8166 44.7227 56.4442 44.6946 55.0697C44.6666 53.5983 44.6666 52.2044 44.6966 50.918C44.7768 47.4332 45.0813 44.684 45.6643 43.1094C46.0249 42.1285 48.2266 38.6867 51.0273 36.826C54.9238 34.2425 61.7253 34.9222 65.3914 37.8693C68.4786 40.3517 72.0086 48.7217 70.2136 54.2135L70.2116 54.2092Z" fill="#4C3B34"/>
<path d="M47.545 59.9802C46.1407 60.2168 44.4678 59.1434 43.7807 57.8054C43.0935 56.4695 43.0094 54.8669 43.1476 53.3482C43.2177 52.5695 43.382 51.722 43.957 51.2401C44.6561 50.655 45.7219 50.8723 46.4091 51.4725C47.0963 52.0748 47.4929 52.9675 47.8676 53.8301L47.545 59.9802Z" fill="#DE9D73"/>
<path d="M32.3547 90.3125C33.0619 102.296 41.8848 113.932 47.352 117.617C51.6452 120.51 62.7258 123.95 72.2819 123.793C76.481 123.724 82.8016 122.956 88.2708 122.392C90.9113 122.121 94.0826 122.345 96.1 122.257C102.381 121.983 102.907 117.455 105.099 118.724C106.736 119.671 107.018 121.246 108.076 122.532C108.327 122.837 108.731 123.151 109.142 123.001C109.701 122.797 109.853 122.384 109.406 120.456C109.839 121.362 110.568 122.418 111.418 122.033C111.895 121.818 111.758 120.783 111.432 119.959C111.73 120.587 112.299 121.291 112.78 121.22C113.179 121.162 113.219 120.856 113.249 120.443C113.401 118.378 111.049 112.736 108.256 111.568C105.53 110.428 102.889 111.409 100.139 112.473C97.3862 113.538 94.4031 115.633 91.4842 115.414C81.4093 114.652 60.0553 108.076 56.1828 105.469C53.6686 103.776 51.1103 92.526 45.8755 84.6916C42.9265 80.2775 39.4867 77.0314 34.9791 79.8989C32.0322 81.7746 32.1624 86.961 32.3607 90.3125H32.3547Z" fill="#DE9D73"/>
<path d="M89.8454 115.25C79.2616 113.988 59.8489 107.943 56.1748 105.469C53.6605 103.776 51.1022 92.526 45.8674 84.6916C42.9185 80.2775 39.4787 77.0314 34.9711 79.8989C32.0241 81.7746 32.1543 86.961 32.3527 90.3125C33.0599 102.296 41.8827 113.932 47.3499 117.617C51.6431 120.51 62.7238 123.95 72.2799 123.793C76.4789 123.724 82.7996 122.956 88.2688 122.392C88.5733 122.36 88.8858 122.336 89.2024 122.317C89.4287 119.961 89.7052 117.612 89.8474 115.25H89.8454Z" fill="#F3D078"/>
<path d="M130.173 121.596L113.746 124.853C113.245 124.952 111.48 125.202 111.911 124.107L125.139 94.7504C125.576 93.7824 126.421 92.2551 127.405 92.0615L145.908 88.4562C146.409 88.3573 147.144 89.6845 146.924 90.1771L132.431 119.751C131.994 120.719 131.155 121.405 130.171 121.599L130.173 121.596Z" fill="#00ABE1"/>
<path d="M131.436 121.378L113.845 124.837C113.344 124.936 112.951 124.381 113.174 123.888L126.402 94.5321C126.839 93.5641 127.678 92.8778 128.662 92.6842L146.253 89.2252C146.754 89.1263 147.147 89.6813 146.924 90.1739L133.696 119.53C133.259 120.498 132.42 121.184 131.436 121.378Z" fill="#BDEFFF"/>
<path d="M40.1718 127.945C52.6548 133 64.096 130.133 76.2906 139.417C86.3715 147.092 85.6323 153.793 104.448 152.971C108.244 152.805 103.398 160.863 102.212 161.915C101.026 162.969 99.4976 163.451 98.0051 163.856C86.8343 166.889 75.1887 167.054 63.6673 167.205C56.7356 167.295 49.6617 167.364 43.0546 165.112C36.4475 162.858 30.2631 157.841 28.1876 150.738C26.8313 146.096 27.3903 140.847 29.6881 136.655C31.986 132.462 35.7323 128.926 40.1698 127.947L40.1718 127.945Z" fill="#62D5FA"/>
<g style="mix-blend-mode:multiply">
<g style="mix-blend-mode:multiply">
<path d="M34.349 213.003C53.0432 213.003 68.1979 208.254 68.1979 202.396C68.1979 196.538 53.0432 191.789 34.349 191.789C15.6547 191.789 0.5 196.538 0.5 202.396C0.5 208.254 15.6547 213.003 34.349 213.003Z" fill="#14A6D3"/>
</g>
</g>
<path d="M8.81958 186.967C9.95549 182.437 11.3639 181.067 14.3789 178.61C17.394 176.154 21.0902 174.828 24.8145 174.106C29.1698 173.26 33.7355 173.2 37.9526 174.641C42.1717 176.083 46.0142 179.146 47.9655 183.414C49.0313 185.741 49.5081 188.329 50.4837 190.702C51.4573 193.074 53.1262 195.357 55.4781 195.942C56.586 196.217 57.7399 196.092 58.8778 196.075C60.0157 196.058 61.2118 196.176 62.1554 196.858C63.0989 197.54 63.6679 198.947 63.145 200.031C62.5761 201.21 61.1296 201.449 59.8955 201.543C54.4163 201.965 48.6466 202.331 43.6903 199.788C42.1917 199.018 40.7954 197.994 39.2087 197.467C34.2945 195.838 28.9675 199.323 23.937 198.175C20.8999 197.482 18.4137 195.189 16.2481 192.803C14.0804 190.416 11.5181 190.469 8.81958 188.819V186.967Z" fill="#3E639F"/>
<path d="M59.1562 178.497C52.2285 174.666 44.3653 180.904 43.3075 183.957C42.1957 187.164 44.199 190.266 45.982 192.813C49.1393 197.326 50.9604 198.92 58.8777 197.72C63.227 197.059 65.7954 195.88 65.9637 190.86C66.148 185.353 64.8297 181.633 59.1562 178.497Z" fill="#547DBF"/>
<path d="M46.2832 173.396C46.4294 172.919 46.7459 172.473 47.1927 172.318C48.0221 172.032 48.8134 172.815 49.3643 173.538C50.7046 175.296 51.9347 177.15 53.0445 179.082C53.0205 179.036 49.745 180.852 49.4305 180.975C48.549 181.317 47.7516 181.351 47.0384 180.607C45.6842 179.191 45.7463 175.145 46.2832 173.394V173.396Z" fill="#547DBF"/>
<path d="M70.1372 184.772C70.3475 184.323 70.4177 183.768 70.2033 183.32C69.8046 182.49 68.7308 182.443 67.8634 182.535C65.7578 182.761 63.6683 183.14 61.6108 183.667C61.6569 183.652 62.7788 187.423 62.9211 187.75C63.3197 188.662 63.8606 189.29 64.8563 189.303C66.7455 189.328 69.3659 186.42 70.1372 184.772Z" fill="#547DBF"/>
<path d="M36.2298 190.349C37.4038 193.047 36.372 196.635 34.1223 198.375C30.3419 201.298 17.348 197.676 14.7857 196.108C15.4989 204.084 30.5522 208.266 38.8863 206.825C41.7411 206.332 45.0106 206.663 45.0106 208.524C45.0106 211.469 41.5748 211.947 32.8421 211.368C28.4267 211.075 24.0553 210.275 19.8683 208.737C5.36585 203.411 5.99892 187.576 10.0257 184.182C14.8338 180.127 31.1152 178.606 36.2298 190.347V190.349Z" fill="#547DBF"/>
</svg>
