<svg width="112" height="112" viewBox="0 0 112 112" fill="none" xmlns="http://www.w3.org/2000/svg">
<path d="M90.7958 15.2984C90.5608 12.0249 90.352 9.99486 90.2117 8.84027C90.1203 8.09803 89.4971 7.53342 88.7303 7.49535C86.0221 7.36213 79.4636 6.95295 72.7127 5.91254C62.9826 4.41538 59.7426 0.120535 55.9967 0C52.2542 0.123707 49.0141 4.41538 39.2841 5.91254C32.5331 6.94978 25.9746 7.35896 23.2664 7.49535C22.4996 7.53342 21.8764 8.1012 21.7851 8.84027C21.6447 9.99486 21.4327 12.0249 21.201 15.2984C20.6659 22.8033 21.3511 26.4732 21.5077 27.8118C23.1946 42.2189 31.0322 53.1146 31.9295 54.3294C33.7436 56.7972 37.5678 61.5552 43.7314 66.1006C49.4774 70.3383 53.853 72.305 56 72.2383C58.147 72.305 62.5193 70.3383 68.2686 66.1006C74.429 61.5552 78.2531 56.7972 80.0705 54.3294C80.9678 53.1114 88.8054 42.2189 90.4923 27.8118C90.6489 26.4732 91.3341 22.8033 90.799 15.2984H90.7958Z" fill="#127398"/>
<path d="M84.4882 19.1746L84.445 18.5725C84.2471 15.8146 84.0718 14.1138 83.9556 13.157C83.9395 13.0328 83.8289 12.9063 83.6452 12.8971C81.3384 12.7837 75.7504 12.4353 69.9893 11.5474L84.4882 19.1746ZM84.4882 19.1746C84.8142 24.3437 84.4318 27.1807 84.2508 28.5237C84.2273 28.698 84.2072 28.8472 84.1925 28.973M84.4882 19.1746L69.9891 11.5474C65.732 10.8923 62.8833 9.62014 60.7151 8.51109C60.3356 8.31698 59.9885 8.13425 59.6638 7.96333C59.0424 7.63616 58.5031 7.35221 57.9755 7.11437C57.2109 6.76965 56.592 6.5819 55.9976 6.55685C55.4037 6.5824 54.785 6.77046 54.0206 7.11538C53.4942 7.35291 52.9562 7.63618 52.3365 7.96247C52.0108 8.13394 51.6626 8.31729 51.2816 8.51213C49.1135 9.62091 46.2648 10.8924 42.0077 11.5474L42.0075 11.5475C36.2462 12.4327 30.658 12.781 28.3526 12.8971L28.3518 12.8971C28.1694 12.9062 28.057 13.0346 28.0413 13.1584C27.925 14.1161 27.7471 15.8166 27.5521 18.5715L27.5521 18.5721C27.1561 24.1247 27.5611 27.1293 27.749 28.5237C27.7725 28.698 27.7926 28.8472 27.8073 28.973C29.2038 40.8997 35.7082 49.9465 36.4369 50.9331L36.4382 50.9349C37.9375 52.9743 41.1049 56.9161 46.2123 60.6826L46.2124 60.6826C48.6088 62.45 50.6974 63.7272 52.3891 64.5509C54.1203 65.3938 55.3156 65.7017 55.9689 65.6814L55.9999 65.6804L56.0309 65.6814C56.6841 65.7017 57.8787 65.3939 59.6096 64.5509C61.301 63.7272 63.3897 62.45 65.7877 60.6825C70.8921 56.9161 74.0597 52.9743 75.5621 50.9342L75.5622 50.9341C76.2918 49.9436 82.796 40.8996 84.1925 28.973M84.1925 28.973C84.1925 28.973 84.1925 28.9729 84.1925 28.9729L85.1857 29.0892L84.1925 28.973Z" fill="white" stroke="#127398" stroke-width="2"/>
<path d="M28.349 12.8862L28.3477 12.8863C28.1692 12.895 28.0568 13.0213 28.0414 13.147L28.0413 13.1481C27.9233 14.1047 27.7483 15.7999 27.552 18.5564L27.552 18.5566C27.156 24.1018 27.5604 27.1036 27.7483 28.498C27.7718 28.6725 27.7919 28.8218 27.8066 28.9478L28.349 12.8862ZM28.349 12.8862C30.6551 12.7711 36.2364 12.4229 41.9928 11.5374L28.349 12.8862ZM55.5 32V6.70167C55.1748 6.80094 54.8232 6.93535 54.4342 7.10412C53.8795 7.3448 53.305 7.62871 52.6538 7.95058C52.2911 8.12979 51.9047 8.32077 51.4846 8.5226C49.1794 9.63014 46.1968 10.8919 41.9931 11.5374L55.5 32ZM55.5 32H28.2829C28.0906 31.0068 27.9289 29.9889 27.8067 28.9483L55.5 32Z" fill="#127398" stroke="#127398" stroke-width="2"/>
<path d="M84.3872 18.555L84.3872 18.5552C84.7832 24.1003 84.3788 27.1022 84.1909 28.4966C84.1674 28.6711 84.1473 28.8204 84.1326 28.9464C84.0335 29.7906 83.9083 30.6201 83.7619 31.4349H57.0679V6.76468C57.3621 6.85948 57.675 6.98549 58.0172 7.14216C58.5255 7.37486 59.0419 7.64666 59.6319 7.95721C59.9748 8.13768 60.3426 8.33125 60.748 8.53783C62.9062 9.63738 65.737 10.8882 69.9461 11.5359L69.9461 11.5359C75.7026 12.4215 81.2871 12.7696 83.5901 12.8848L83.5915 12.8848C83.77 12.8935 83.8824 13.0199 83.8978 13.1455L84.8904 13.0243L83.8976 13.1437C84.013 14.1035 84.191 15.8003 84.3872 18.555Z" fill="white" stroke="#127398" stroke-width="2"/>
<path d="M65.7449 60.6256L65.7445 60.626C63.3913 62.3628 61.1905 63.7236 59.368 64.6453C58.4563 65.1063 57.6518 65.451 56.9794 65.6784C56.8006 65.7388 56.6352 65.7896 56.4829 65.8317L56.0001 33H83.7559C81.4929 42.5878 76.1418 50.0291 75.5094 50.8876C74.0088 52.9249 70.8467 56.8646 65.7449 60.6256Z" fill="#127398" stroke="#127398" stroke-width="2"/>
<path d="M36.4265 50.8911C35.8014 50.0425 30.8613 43.173 28.6294 33.6255H54.8709V65.4692C54.2026 65.2976 53.3363 64.9727 52.2755 64.4509C50.6017 63.6275 48.5458 62.3657 46.1911 60.6291C41.089 56.8651 37.9269 52.9281 36.4265 50.8911Z" fill="white" stroke="#127398" stroke-width="2"/>
<path d="M21.7753 107.274H17.4229V110.931H22.2566L22.0648 111.859H16V102.315H21.9846V103.243H17.4194V106.349H21.7718V107.278L21.7753 107.274Z" fill="#127398"/>
<path d="M23.8469 111.859V102.315H25.6116C29.2177 108.923 29.7164 109.822 29.8873 110.229H29.9047C29.8106 108.951 29.7896 107.515 29.7896 105.957V102.315H31.1323V111.859H29.4444C25.7058 104.913 25.2454 104.042 25.092 103.664H25.0745C25.1687 104.859 25.1896 106.421 25.1896 108.134V111.859H23.8469Z" fill="#127398"/>
<path d="M40.4966 109.215C40.4373 109.762 40.113 111.997 36.9498 111.997C33.4797 111.997 33.2112 109.312 33.2112 107.019C33.2112 104.237 34.226 102.167 37.1032 102.167C40.249 102.167 40.4199 104.32 40.4582 104.91H39.0214C38.983 104.586 38.9063 103.11 37.0858 103.11C35.0351 103.11 34.7073 105.162 34.7073 107.019C34.7073 109.031 35.0142 111.068 36.9882 111.068C38.7319 111.068 38.983 109.69 39.0388 109.211H40.4966V109.215Z" fill="#127398"/>
<path d="M43.7574 107.458V111.859H42.3206V102.315H45.7348C47.9215 102.315 49.0514 103.214 49.0514 104.776C49.0514 106.209 48.1133 106.813 47.3077 107.011C48.5144 107.321 48.898 108.109 48.898 109.444V109.822C48.898 110.708 48.9364 111.341 49.0898 111.859H47.653C47.4786 111.424 47.4611 110.582 47.4611 109.794V109.47C47.4611 108.12 47.0984 107.458 45.3338 107.458H43.7609H43.7574ZM43.7574 106.572H45.407C46.9973 106.572 47.5937 105.91 47.5937 104.802C47.5937 103.844 46.9973 103.2 45.5605 103.2H43.7574V106.572Z" fill="#127398"/>
<path d="M53.2886 111.859V108.217C53.2886 108.12 53.2502 108.034 53.2119 107.98L49.8953 102.315H51.5065C52.3888 103.931 53.6548 106.166 54.0384 107.037C54.4988 106.108 55.7647 103.844 56.6087 102.315H58.1223L54.7848 107.98C54.7464 108.037 54.708 108.12 54.708 108.232V111.859H53.2886Z" fill="#127398"/>
<path d="M59.1194 102.312H62.4744C64.525 102.312 65.9444 103.255 65.9444 104.968C65.9444 106.681 64.661 107.725 62.2826 107.725H60.5562V111.857H59.1194V102.312ZM60.5562 106.84H62.1291C63.681 106.84 64.4867 106.235 64.4867 104.957C64.4867 103.903 63.7403 103.201 62.2826 103.201H60.5562V106.843V106.84Z" fill="#127398"/>
<path d="M69.69 103.24H66.7954V102.312H74.025V103.24H71.1304V111.857H69.6935V103.24H69.69Z" fill="#127398"/>
<path d="M76.8607 102.312V111.857H75.4238V102.312H76.8607Z" fill="#127398"/>
<path d="M86.6254 106.994C86.6254 110.254 85.5722 112 82.7508 112C79.9294 112 78.9529 110.312 78.9529 107.022C78.9529 103.733 80.2572 102.171 82.8275 102.171C85.3978 102.171 86.6254 103.758 86.6254 106.994ZM80.4316 106.994C80.4316 109.722 81.1779 111.086 82.8101 111.086C84.4422 111.086 85.1502 109.75 85.1502 107.008C85.1502 104.265 84.4039 103.085 82.7926 103.085C81.1814 103.085 80.4351 104.391 80.4351 106.994H80.4316Z" fill="#127398"/>
<path d="M88.7142 111.859V102.315H90.4789C94.0849 108.923 94.5837 109.822 94.7545 110.229H94.772C94.6778 108.951 94.6569 107.515 94.6569 105.957V102.315H95.9996V111.859H94.3116C90.573 104.913 90.1127 104.042 89.9592 103.664H89.9383C90.0325 104.859 90.0534 106.421 90.0534 108.134V111.859H88.7107H88.7142Z" fill="#127398"/>
<path d="M12.2109 89.208L17.1133 75.1162H19.6426V77.9092H18.7734L15.3164 89.208H12.2109ZM14.8379 85.7901L15.5605 83.583H22.0938L22.8164 85.7901H14.8379ZM22.3867 89.208L18.9199 77.9092V75.1162H20.5801L25.4824 89.208H22.3867ZM27.6699 89.208V75.1162H37.0059V77.5479H30.6191V80.9463H36.6445V83.2217H30.6191V86.7764H37.0059V89.208H27.6699ZM44.9453 89.5401C43.819 89.5401 42.8424 89.3741 42.0156 89.042C41.1888 88.7035 40.5378 88.2282 40.0625 87.6162C39.5938 86.9978 39.3301 86.2686 39.2715 85.4287L39.2617 85.2725H42.0938L42.1035 85.3701C42.1491 85.7217 42.2988 86.031 42.5527 86.2979C42.8066 86.5648 43.1452 86.7731 43.5684 86.9229C43.9915 87.0726 44.4733 87.1475 45.0137 87.1475C45.5475 87.1475 46.013 87.0694 46.4102 86.9131C46.8073 86.7569 47.1165 86.542 47.3379 86.2686C47.5592 85.9886 47.6699 85.6696 47.6699 85.3116V85.3018C47.6699 84.8395 47.4811 84.4717 47.1035 84.1983C46.7324 83.9183 46.1107 83.6872 45.2383 83.5049L43.7441 83.2022C42.2988 82.9092 41.2376 82.4242 40.5605 81.7471C39.89 81.0635 39.5547 80.1879 39.5547 79.1201V79.1104C39.5612 78.2445 39.7923 77.486 40.248 76.835C40.7103 76.1839 41.3451 75.6794 42.1523 75.3213C42.9596 74.9632 43.8841 74.7842 44.9258 74.7842C46.0195 74.7842 46.9603 74.96 47.748 75.3116C48.5358 75.6631 49.1478 76.1481 49.584 76.7666C50.0267 77.3786 50.2773 78.085 50.3359 78.8858L50.3457 79.0127H47.5723L47.5527 78.8955C47.5007 78.5505 47.3607 78.251 47.1328 77.9971C46.9049 77.7432 46.6022 77.5446 46.2246 77.4014C45.8535 77.2517 45.4206 77.1768 44.9258 77.1768C44.4375 77.1768 44.0111 77.2484 43.6465 77.3916C43.2884 77.5349 43.0085 77.7367 42.8066 77.9971C42.6048 78.251 42.5039 78.5537 42.5039 78.9053V78.9151C42.5039 79.3643 42.6895 79.7321 43.0605 80.0186C43.4316 80.305 44.0306 80.5329 44.8574 80.7022L46.3418 81.0049C47.8327 81.3044 48.9167 81.7731 49.5938 82.4112C50.2773 83.0427 50.6191 83.9086 50.6191 85.0088V85.0186C50.6191 85.9431 50.3913 86.7438 49.9355 87.4209C49.4798 88.098 48.8255 88.6221 47.9727 88.9932C47.1263 89.3578 46.1172 89.5401 44.9453 89.5401ZM53.1094 84.7842V82.2354H59.5645V84.7842H53.1094ZM62.416 89.208V87.2159L67.0547 82.6944C67.7057 82.0694 68.207 81.555 68.5586 81.1514C68.9102 80.7478 69.1543 80.3929 69.291 80.0869C69.4277 79.781 69.4961 79.4619 69.4961 79.1299V79.1006C69.4961 78.7035 69.4082 78.3552 69.2324 78.0557C69.0566 77.7497 68.806 77.5121 68.4805 77.3428C68.1615 77.167 67.7806 77.0791 67.3379 77.0791C66.8757 77.0791 66.4655 77.1768 66.1074 77.3721C65.7559 77.5609 65.4792 77.8246 65.2773 78.1631C65.082 78.4951 64.9844 78.8825 64.9844 79.3252L64.9746 79.3838H62.25L62.2402 79.335C62.2467 78.4366 62.4681 77.6455 62.9043 76.9619C63.347 76.2784 63.959 75.7445 64.7402 75.3604C65.5215 74.9763 66.4199 74.7842 67.4355 74.7842C68.4121 74.7842 69.2715 74.9567 70.0137 75.3018C70.7559 75.6468 71.3353 76.1286 71.752 76.7471C72.1751 77.3591 72.3867 78.0687 72.3867 78.876V78.9053C72.3867 79.4457 72.2826 79.9698 72.0742 80.4776C71.8724 80.9789 71.5241 81.5225 71.0293 82.1084C70.541 82.6879 69.8737 83.3682 69.0273 84.1494L65.4727 87.46L66.3418 86.0049V87.46L65.4727 86.8448H72.5918V89.208H62.416ZM80.4434 89.5401C79.4408 89.5401 78.5586 89.3578 77.7969 88.9932C77.0352 88.6286 76.4329 88.1338 75.9902 87.5088C75.554 86.8838 75.3066 86.1807 75.248 85.3994L75.2383 85.253H77.9238L77.9434 85.3213C78.015 85.6729 78.1615 85.9919 78.3828 86.2784C78.6107 86.5583 78.9004 86.7829 79.252 86.9522C79.61 87.1149 80.0104 87.1963 80.4531 87.1963C80.9609 87.1963 81.4069 87.0856 81.791 86.8643C82.1816 86.6429 82.4876 86.3402 82.709 85.9561C82.9303 85.5655 83.041 85.1195 83.041 84.6182V84.5987C83.041 84.0974 82.9303 83.6579 82.709 83.2803C82.4876 82.8962 82.1816 82.5967 81.791 82.3819C81.4069 82.167 80.9642 82.0596 80.4629 82.0596C80.1113 82.0596 79.7826 82.1117 79.4766 82.2159C79.1771 82.3135 78.9069 82.46 78.666 82.6553C78.5358 82.766 78.4121 82.8864 78.2949 83.0166C78.1842 83.1468 78.0898 83.2901 78.0117 83.4463H75.4727L76.127 75.1162H84.9746V77.46H78.4316L78.0801 81.4639H78.2266C78.513 80.9886 78.9199 80.6143 79.4473 80.3409C79.9811 80.0674 80.5898 79.9307 81.2734 79.9307C82.1589 79.9307 82.9434 80.1293 83.627 80.5264C84.3105 80.9235 84.8477 81.4704 85.2383 82.167C85.6289 82.8571 85.8242 83.6514 85.8242 84.5498V84.5694C85.8242 85.5524 85.5964 86.4183 85.1406 87.167C84.6849 87.9157 84.0534 88.4984 83.2461 88.9151C82.4388 89.3317 81.5046 89.5401 80.4434 89.5401ZM93.8027 89.5498C92.9759 89.5498 92.2077 89.4034 91.498 89.1104C90.7949 88.8109 90.1764 88.3617 89.6426 87.7627C89.1152 87.1638 88.7018 86.4118 88.4023 85.5069C88.1094 84.5954 87.9629 83.5244 87.9629 82.294V82.2744C87.9629 80.7119 88.2005 79.3708 88.6758 78.251C89.151 77.1312 89.8249 76.2751 90.6973 75.6826C91.5697 75.0837 92.6113 74.7842 93.8223 74.7842C94.7272 74.7842 95.5443 74.9502 96.2734 75.2823C97.0026 75.6078 97.6048 76.057 98.0801 76.6299C98.5553 77.2028 98.8646 77.8571 99.0078 78.5928L99.0273 78.6807H96.1367L96.0977 78.5928C95.987 78.2998 95.8242 78.0459 95.6094 77.8311C95.401 77.6097 95.1471 77.4372 94.8477 77.3135C94.5482 77.1898 94.2064 77.128 93.8223 77.128C93.1452 77.128 92.5853 77.3298 92.1426 77.7334C91.7064 78.1371 91.3776 78.6839 91.1562 79.3741C90.9414 80.0576 90.8145 80.8226 90.7754 81.669C90.7689 81.7666 90.7656 81.8643 90.7656 81.9619C90.7656 82.0531 90.7656 82.1507 90.7656 82.2549L91.2051 84.6084C91.2051 85.0967 91.319 85.5394 91.5469 85.9366C91.7747 86.3272 92.084 86.6364 92.4746 86.8643C92.8652 87.0922 93.2982 87.2061 93.7734 87.2061C94.2552 87.2061 94.6882 87.0954 95.0723 86.8741C95.4629 86.6462 95.7721 86.3402 96 85.9561C96.2344 85.5655 96.3516 85.1325 96.3516 84.6573V84.6377C96.3516 84.1494 96.2409 83.7165 96.0195 83.3389C95.7982 82.9548 95.4954 82.6553 95.1113 82.4405C94.7272 82.2191 94.291 82.1084 93.8027 82.1084C93.3145 82.1084 92.875 82.2159 92.4844 82.4307C92.0938 82.639 91.7812 82.932 91.5469 83.3096C91.319 83.6807 91.2051 84.1071 91.2051 84.5889V84.6084H90.6191V82.0401H90.9316C91.1074 81.656 91.3581 81.3044 91.6836 80.9854C92.0156 80.6664 92.4258 80.4125 92.9141 80.2237C93.4023 80.0284 93.9688 79.9307 94.6133 79.9307C95.5312 79.9307 96.332 80.1293 97.0156 80.5264C97.7057 80.9235 98.2428 81.4704 98.627 82.167C99.0176 82.8571 99.2129 83.6481 99.2129 84.5401V84.5596C99.2129 85.5166 98.9818 86.3728 98.5195 87.128C98.0573 87.8767 97.4193 88.4691 96.6055 88.9053C95.7917 89.335 94.8574 89.5498 93.8027 89.5498Z" fill="#127398"/>
</svg>
