<svg width="112" height="112" viewBox="0 0 112 112" fill="none" xmlns="http://www.w3.org/2000/svg">
<path d="M29.0335 69.0871C28.799 68.1789 27.804 67.7805 27.0846 68.3308C25.7917 69.3268 24.5305 70.0695 23.3105 70.5624C21.5929 71.2545 19.7486 71.6023 17.7807 71.6023C14.5326 71.6023 12.0323 70.7582 10.2894 69.0668C8.54333 67.3754 7.67188 65.2147 7.67188 62.5847C7.67188 61.0418 8.00144 59.6306 8.66058 58.3578C9.31971 57.0816 10.1817 56.0587 11.2496 55.2856C12.3175 54.5124 13.5185 53.9317 14.8558 53.5334C15.8382 53.2565 17.3244 52.9898 19.3113 52.7332C22.7749 52.2943 25.459 51.7812 27.3572 51.1937C27.8896 51.0283 28.2603 50.5117 28.273 49.9209C28.2762 49.7251 28.2793 49.5867 28.2793 49.4955C28.2793 47.3213 27.8072 45.7852 26.8597 44.8973C25.5794 43.692 23.6749 43.0877 21.1493 43.0877C18.7916 43.0877 17.0487 43.5266 15.9269 44.4078C14.9889 45.1437 14.2569 46.349 13.7245 48.0269C13.5312 48.638 12.9576 49.0128 12.3587 48.9284L9.93765 48.5772C9.17077 48.4658 8.66691 47.6488 8.89508 46.8622C9.33872 45.3092 9.95033 44.0094 10.733 42.9594C11.7534 41.5853 13.2302 40.5252 15.16 39.7859C17.0899 39.0431 19.3271 38.6718 21.8718 38.6718C24.4164 38.6718 26.4477 38.9891 28.0258 39.6204C29.6039 40.2551 30.7638 41.0485 31.5085 42.0107C32.25 42.9695 32.7697 44.1816 33.0676 45.6468C33.2355 46.5583 33.3179 48.1991 33.3179 50.5725V57.6927C33.3179 62.659 33.4256 65.7987 33.638 67.1154C33.7457 67.7805 33.9073 68.4321 34.1228 69.0702C34.4239 69.9581 33.8281 70.8967 32.9408 70.8967H30.4944C29.981 70.8967 29.5057 70.5692 29.3219 70.056C29.211 69.7488 29.1128 69.4247 29.0272 69.0938L29.0335 69.0871ZM28.254 56.9669C28.254 56.0688 27.4459 55.4172 26.6347 55.6738C24.9393 56.2106 22.7496 56.6866 20.0655 57.0951C18.0057 57.4125 16.548 57.767 15.6924 58.162C14.8368 58.557 14.1777 59.1377 13.715 59.8973C13.2492 60.6603 13.0178 61.5043 13.0178 62.4328C13.0178 63.8575 13.5249 65.0425 14.5357 65.9946C15.5466 66.9432 17.0297 67.4193 18.9786 67.4193C20.9274 67.4193 22.626 66.9702 24.1312 66.0688C25.6365 65.1674 26.7392 63.9385 27.4459 62.3754C27.9846 61.1701 28.254 59.3875 28.254 57.0344V56.9669Z" fill="#127398"/>
<path d="M46.2786 69.934L38.0014 41.1156C37.751 40.2479 38.3595 39.3735 39.2119 39.3735H41.7185C42.2889 39.3735 42.7864 39.7786 42.9386 40.3627L47.3909 57.5639L49.1465 64.3296C49.2193 63.992 49.7327 61.828 50.677 57.8306L55.1294 40.3694C55.2783 39.782 55.779 39.3735 56.3494 39.3735H59.5532C60.1299 39.3735 60.6338 39.7888 60.7795 40.3829L64.9625 57.6517L66.4392 63.6747L68.1378 57.5909L72.9387 40.3357C73.0971 39.7617 73.5915 39.3701 74.1524 39.3701H76.3611C77.2135 39.3701 77.822 40.2513 77.5684 41.1189L69.1138 69.9374C68.949 70.5012 68.461 70.8827 67.9064 70.8827H64.6013C64.0277 70.8827 63.527 70.4708 63.3781 69.88L58.9194 52.0102L57.7786 46.6389L52.0397 69.8766C51.8939 70.4674 51.3901 70.8827 50.8165 70.8827H47.4923C46.9377 70.8827 46.4465 70.4944 46.2818 69.9306L46.2786 69.934Z" fill="#127398"/>
<path d="M81.6122 61.2609L84.0427 60.8524C84.6892 60.7444 85.2976 61.1833 85.4656 61.8585C85.8458 63.3946 86.5462 64.6168 87.5666 65.5182C88.8373 66.6458 90.615 67.2096 92.8998 67.2096C95.1846 67.2096 96.9117 66.71 98.024 65.7106C99.1394 64.7113 99.694 63.5398 99.694 62.1927C99.694 60.9875 99.2028 60.0354 98.2173 59.3433C97.5296 58.8673 95.8216 58.2663 93.0931 57.5337C89.4172 56.5445 86.8694 55.6904 85.4465 54.9679C84.0269 54.2454 82.9494 53.2461 82.2142 51.9699C81.4791 50.6937 81.1146 49.2859 81.1146 47.743C81.1146 46.3386 81.4157 45.0388 82.021 43.8402C82.623 42.6451 83.447 41.6491 84.4864 40.8591C85.2659 40.2447 86.3275 39.7281 87.6743 39.3028C89.0211 38.8774 90.4629 38.6647 92.0062 38.6647C94.3258 38.6647 96.3635 39.0192 98.119 39.7315C99.8746 40.4439 101.168 41.4094 102.004 42.6248C102.622 43.5263 103.101 44.6539 103.433 46.0043C103.627 46.7943 103.145 47.5911 102.384 47.6991L99.976 48.0502C99.3549 48.1414 98.7782 47.7261 98.5912 47.0881C98.268 45.9942 97.7007 45.1063 96.8958 44.4176C95.8279 43.5094 94.3195 43.0536 92.3706 43.0536C90.0668 43.0536 88.4253 43.4587 87.4398 44.269C86.4543 45.0793 85.9631 46.0313 85.9631 47.1184C85.9631 47.8105 86.1659 48.4351 86.5747 48.9888C86.9835 49.5627 87.6236 50.0388 88.495 50.4135C88.9957 50.6127 90.4724 51.0651 92.922 51.7775C96.468 52.7869 98.9429 53.6141 100.344 54.2555C101.744 54.897 102.847 55.8322 103.646 57.0611C104.444 58.2866 104.843 59.8126 104.843 61.6323C104.843 63.452 104.355 65.0894 103.383 66.6627C102.41 68.236 101.003 69.4514 99.1616 70.3123C97.3205 71.1732 95.2448 71.6019 92.922 71.6019C89.0781 71.6019 86.15 70.7512 84.1346 69.0496C82.4266 67.6046 81.2414 65.5722 80.5791 62.9456C80.3858 62.1691 80.8611 61.3825 81.6058 61.2609H81.6122Z" fill="#127398"/>
<path d="M0 21.0534V5.06851C0 4.82682 0.182744 4.63548 0.406447 4.63548H1.35798C1.58483 4.63548 1.76442 4.83018 1.76442 5.06851C1.76442 5.44782 2.18662 5.64251 2.44814 5.38404C2.67814 5.15914 2.92075 4.97452 3.17596 4.82346C3.69899 4.51464 4.33544 4.36023 5.08217 4.36023C6.0589 4.36023 6.91906 4.62877 7.66579 5.16249C8.41252 5.69958 8.9765 6.45484 9.35774 7.4283C9.73898 8.40512 9.92803 9.47257 9.92803 10.634C9.92803 11.8794 9.71693 13.0039 9.29788 14.0008C8.87883 14.9978 8.26758 15.7631 7.46729 16.2969C6.667 16.8272 5.82575 17.0958 4.94038 17.0958C4.29448 17.0958 3.71474 16.9514 3.20117 16.6594C2.98061 16.5352 2.77582 16.3942 2.58992 16.2398C2.32211 16.0216 1.93771 16.223 1.93771 16.5855V21.0534C1.93771 21.2951 1.75497 21.4864 1.53127 21.4864H0.406447C0.179593 21.4864 0 21.2917 0 21.0534ZM1.75497 10.7951C1.75497 12.3627 2.05429 13.5208 2.64979 14.2727C3.24528 15.0213 3.9668 15.3972 4.81435 15.3972C5.66191 15.3972 6.41494 15.0079 7.02618 14.2324C7.64058 13.457 7.9462 12.252 7.9462 10.6239C7.9462 8.99591 7.64688 7.90832 7.04824 7.13627C6.4496 6.36421 5.73122 5.97819 4.89942 5.97819C4.06763 5.97819 3.34295 6.39107 2.7065 7.21012C2.07005 8.03252 1.75497 9.22753 1.75497 10.7951Z" fill="#127398"/>
<path d="M11.5444 10.728C11.5444 8.47226 12.1336 6.80059 13.312 5.713C14.295 4.81003 15.4955 4.36023 16.9102 4.36023C18.4824 4.36023 19.7679 4.91074 20.7667 6.00504C21.7655 7.1027 22.2633 8.61995 22.2633 10.5534C22.2633 12.121 22.0427 13.3563 21.6016 14.2526C21.1605 15.1522 20.5178 15.8504 19.6734 16.3472C18.829 16.844 17.909 17.0924 16.9102 17.0924C15.3096 17.0924 14.0146 16.5453 13.0284 15.451C12.0423 14.3566 11.5476 12.7823 11.5476 10.7246L11.5444 10.728ZM13.5357 10.728C13.5357 12.2889 13.8539 13.457 14.4935 14.2324C15.1331 15.0079 15.9366 15.3972 16.907 15.3972C17.8775 15.3972 18.6683 15.0079 19.3079 14.2257C19.9475 13.447 20.2657 12.2553 20.2657 10.6575C20.2657 9.15032 19.9443 8.00902 19.3016 7.23361C18.6588 6.4582 17.8617 6.06882 16.907 6.06882C15.9523 6.06882 15.1331 6.45485 14.4935 7.2269C13.8539 7.99895 13.5357 9.1671 13.5357 10.7246V10.728Z" fill="#127398"/>
<path d="M26.5295 16.4282L23.3315 5.29721C23.237 4.96824 23.467 4.63593 23.7883 4.63593H24.7777C24.9919 4.63593 25.181 4.79034 25.2408 5.01188L26.9643 11.6717L27.6417 14.2866C27.6701 14.1557 27.8686 13.3199 28.2341 11.7724L29.9512 5.04209C30.0111 4.80041 30.2159 4.63593 30.449 4.63593H31.6463C31.8826 4.63593 32.0874 4.80712 32.1473 5.04881L33.7605 11.7019L34.3308 14.0315L34.9861 11.6784L36.8451 5.00181C36.9049 4.78362 37.094 4.63257 37.3082 4.63257H38.1747C38.4992 4.63257 38.7324 4.96824 38.6347 5.30056L35.3642 16.4483C35.3012 16.6665 35.109 16.8176 34.8916 16.8176H33.6219C33.3982 16.8176 33.2028 16.6565 33.1429 16.4249L31.4195 9.52L30.9784 7.44217L28.7665 16.4014C28.7067 16.6464 28.4987 16.8142 28.2624 16.8142H27.0242C26.7942 16.8142 26.5925 16.6531 26.5264 16.4215L26.5295 16.4282Z" fill="#127398"/>
<path d="M48.685 12.9468L49.6712 13.0777C50.002 13.1214 50.2131 13.4839 50.0934 13.8129C49.7563 14.7494 49.2364 15.4979 48.5369 16.0619C47.6831 16.75 46.5898 17.0958 45.2633 17.0958C43.5903 17.0958 42.2638 16.5486 41.2839 15.451C40.304 14.3533 39.8125 12.8125 39.8125 10.8321C39.8125 8.85157 40.3072 7.18997 41.2997 6.05875C42.289 4.92752 43.5745 4.36023 45.1562 4.36023C46.7379 4.36023 47.9351 4.91409 48.9024 6.02518C49.8729 7.13291 50.3549 8.6938 50.3549 10.7079C50.3549 11.0133 50.1218 11.2584 49.8382 11.2584H42.3867C42.0747 11.2584 41.829 11.5538 41.8731 11.8827C42.0117 12.92 42.3457 13.7356 42.8813 14.3332C43.5209 15.0448 44.3181 15.4006 45.2728 15.4006C45.9848 15.4006 46.5898 15.2026 47.0939 14.8031C47.5224 14.4641 47.8753 13.9538 48.1525 13.2724C48.2408 13.0509 48.4613 12.9233 48.685 12.9502V12.9468ZM42.5127 9.55649H47.7209C48.0391 9.55649 48.288 9.25438 48.2313 8.9187C48.1084 8.20707 47.891 7.64985 47.5791 7.2504C46.9616 6.45485 46.1613 6.05875 45.1782 6.05875C44.2866 6.05875 43.5398 6.37764 42.9317 7.01207C42.4528 7.51222 42.1409 8.15001 42.0023 8.9187C41.9424 9.25102 42.1945 9.55984 42.5127 9.55984V9.55649Z" fill="#127398"/>
<path d="M52.7056 16.3069V5.14907C52.7056 4.86374 52.923 4.63213 53.1908 4.63213H53.969C54.2368 4.63213 54.4542 4.86374 54.4542 5.14907V6.4817C54.8985 5.61901 55.3112 5.04836 55.6862 4.77311C56.0611 4.49786 56.477 4.36023 56.9307 4.36023C57.4569 4.36023 57.9925 4.50457 58.5345 4.79325C58.7613 4.91409 58.8621 5.19942 58.7771 5.45118L58.4494 6.39442C58.3517 6.67975 58.0492 6.80395 57.7846 6.69318C57.4569 6.55555 57.1292 6.48841 56.8015 6.49513C56.4928 6.49848 56.184 6.58576 55.913 6.74688C55.4593 7.02214 55.1443 7.4518 54.971 8.03252C54.7567 8.76765 54.6464 9.56992 54.6464 10.4427V16.3069C54.6464 16.5889 54.4322 16.8205 54.1644 16.8205H53.1908C52.9261 16.8205 52.7087 16.5922 52.7087 16.3069H52.7056Z" fill="#127398"/>
<path d="M68.2959 12.9468L69.2821 13.0777C69.6129 13.1214 69.824 13.4839 69.7043 13.8129C69.3671 14.7494 68.8472 15.4979 68.1478 16.0619C67.2939 16.75 66.2006 17.0958 64.8741 17.0958C63.2011 17.0958 61.8746 16.5486 60.8947 15.451C59.9149 14.3533 59.4233 12.8125 59.4233 10.8321C59.4233 8.85157 59.918 7.18997 60.9105 6.05875C61.8998 4.92752 63.1853 4.36023 64.767 4.36023C66.3487 4.36023 67.546 4.91409 68.5133 6.02518C69.4837 7.13291 69.9658 8.6938 69.9658 10.7079C69.9658 11.0133 69.7326 11.2584 69.449 11.2584H61.9975C61.6856 11.2584 61.4398 11.5538 61.4839 11.8827C61.6226 12.92 61.9565 13.7356 62.4922 14.3332C63.1318 15.0448 63.9289 15.4006 64.8836 15.4006C65.5957 15.4006 66.2006 15.2026 66.7047 14.8031C67.1332 14.4641 67.4861 13.9538 67.7634 13.2724C67.8516 13.0509 68.0722 12.9233 68.2959 12.9502V12.9468ZM62.1235 9.55649H67.3317C67.65 9.55649 67.8989 9.25438 67.8422 8.9187C67.7193 8.20707 67.5019 7.64985 67.1899 7.2504C66.5724 6.45485 65.7721 6.05875 64.7891 6.05875C63.8974 6.05875 63.1507 6.37764 62.5426 7.01207C62.0637 7.51222 61.7517 8.15001 61.6131 8.9187C61.5532 9.25102 61.8053 9.55984 62.1235 9.55984V9.55649Z" fill="#127398"/>
<path d="M79.7552 16.3138V15.28C79.0715 16.4179 78.0885 17.0188 76.7998 17.0859C75.9334 17.1295 75.0638 16.9214 74.3107 16.4649C73.4159 15.9211 72.7322 15.1155 72.2659 14.048C71.8468 13.088 71.6357 11.9836 71.6357 10.7383C71.6357 9.49291 71.8248 8.41874 72.206 7.4285C72.5873 6.43826 73.1576 5.67963 73.9169 5.15262C74.6794 4.62561 75.5301 4.36043 76.469 4.36043C77.159 4.36043 77.7734 4.51484 78.309 4.82366C78.8447 5.13248 79.2858 5.53529 79.6229 6.03545V0.520297C79.6229 0.231616 79.8435 0 80.1113 0H81.0596C81.3306 0 81.548 0.234973 81.548 0.520297V16.3138C81.548 16.5924 81.3369 16.8173 81.0754 16.8173H80.2247C79.9632 16.8173 79.7521 16.5924 79.7521 16.3138H79.7552ZM73.627 10.7383C73.627 12.2992 73.9358 13.4639 74.5533 14.236C75.1709 15.0081 75.8987 15.3941 76.74 15.3941C77.5812 15.3941 78.3059 15.0248 78.8982 14.2864C79.4906 13.5479 79.7867 12.4234 79.7867 10.9061C79.7867 9.23779 79.4843 8.01593 78.8825 7.23381C78.2807 6.45168 77.5371 6.0623 76.6517 6.0623C75.7664 6.0623 75.0701 6.43826 74.4935 7.18681C73.9169 7.93537 73.627 9.11695 73.627 10.7315V10.7383Z" fill="#127398"/>
<path d="M92.1284 16.8207H91.1075C90.8933 16.8207 90.72 16.6361 90.72 16.4078V0.412881C90.72 0.184622 90.8933 0 91.1075 0H92.267C92.4812 0 92.6545 0.184622 92.6545 0.412881V4.98143C92.6545 5.3406 93.0452 5.51851 93.3036 5.29025C94.0031 4.66925 94.8317 4.36043 95.7895 4.36043C96.4922 4.36043 97.1601 4.51148 97.7871 4.81359C98.4141 5.1157 98.9308 5.542 99.3373 6.0858C99.7437 6.63295 100.062 7.29087 100.289 8.06629C100.519 8.83834 100.632 9.6641 100.632 10.5436C100.632 12.6315 100.147 14.2461 99.1797 15.384C98.2093 16.5253 97.0467 17.0926 95.6919 17.0926C94.6899 17.0926 93.8487 16.7636 93.1681 16.099C92.9161 15.854 92.5159 16.0386 92.5159 16.4011C92.5159 16.6294 92.3426 16.814 92.1284 16.814V16.8207ZM92.497 10.6376C92.497 12.0977 92.6829 13.1551 93.0578 13.803C93.6691 14.8671 94.4946 15.3974 95.5343 15.3974C96.3819 15.3974 97.1129 15.0047 97.7304 14.2226C98.3479 13.4371 98.6567 12.2689 98.6567 10.7181C98.6567 9.1673 98.3605 7.95216 97.7682 7.19689C97.1759 6.44162 96.4607 6.0623 95.6194 6.0623C94.7781 6.0623 94.0409 6.45504 93.4233 7.23717C92.8058 8.02265 92.497 9.15387 92.497 10.6376Z" fill="#127398"/>
<path d="M102.844 20.9128L102.825 20.7551C102.765 20.2079 103.178 19.7313 103.695 19.7514C103.733 19.7514 103.767 19.7514 103.802 19.7514C104.234 19.7514 104.577 19.6742 104.835 19.5231C105.094 19.3687 105.305 19.1573 105.472 18.882C105.595 18.6739 105.79 18.1637 106.064 17.3446C106.08 17.2909 106.102 17.2238 106.13 17.1466C106.2 16.9452 106.196 16.7236 106.124 16.5256L102.33 5.85107C102.123 5.26364 102.529 4.63257 103.118 4.63257H103.392C103.748 4.63257 104.067 4.8709 104.186 5.22671L106.367 11.6885C106.376 11.712 106.382 11.7388 106.392 11.7623C106.666 12.5612 107.712 12.5579 107.983 11.7623L107.992 11.7355L110.233 5.22336C110.355 4.8709 110.671 4.63257 111.023 4.63257H111.156C111.745 4.63257 112.151 5.26028 111.947 5.84771L108.021 17.0257C107.554 18.3651 107.192 19.2848 106.934 19.7917C106.59 20.4731 106.193 20.9699 105.749 21.2888C105.305 21.6077 104.772 21.7655 104.155 21.7655C103.956 21.7655 103.745 21.742 103.521 21.695C103.159 21.6178 102.882 21.3056 102.841 20.9162L102.844 20.9128Z" fill="#127398"/>
<path d="M7.72755 90.6972C8.07937 90.3825 8.79297 90.1491 10.6085 91.2948C11.7768 92.0338 12.4904 92.833 14.3524 93.9999C18.1627 96.3867 33.0189 104.788 53.378 105.057C56.2192 105.096 58.3135 104.983 59.8104 104.902C74.5471 104.092 85.7157 99.7212 88.8954 98.519C90.0272 98.0911 90.3591 97.7516 92.1116 96.9631C93.6218 96.2842 94.2391 96.0791 94.8896 96.3407C95.6895 96.6625 96.3633 97.6279 96.204 98.3634C96.0148 99.258 94.7171 99.8485 94.3055 100.153C91.5274 102.214 89.6721 103.091 86.3231 105.107C80.6409 108.53 69.0407 111.143 59.8137 111.751C55.9304 112.009 49.5213 112.391 41.2502 110.973C20.4728 107.409 7.85367 95.7219 7.19318 92.2884C7.10024 91.8004 7.17658 91.1958 7.73087 90.6972H7.72755Z" fill="#127398"/>
<path d="M104.216 90.2303C104.216 90.2303 104.206 90.2055 104.199 90.1914V90.1843C103.977 89.7847 102.5 89.4099 101.587 89.2048C97.8202 88.3632 95.165 87.7692 91.2916 88.6709C88.58 89.3038 87.4083 90.1702 86.6947 91.1567C86.5985 91.2911 85.7123 92.5358 86.0508 93.0202C86.3495 93.4481 87.405 93.0202 88.3908 92.748C91.3414 91.9276 96.4296 91.7048 98.8226 93.9467C98.879 93.9997 98.9388 94.0563 99.0051 94.12C99.0417 94.2119 99.0782 94.2968 99.108 94.3746C100.343 97.504 98.5272 102.575 96.861 105.294C96.3034 106.203 95.5865 107.136 95.8753 107.571C96.2005 108.066 97.5879 107.571 97.7373 107.511C98.8425 107.104 99.9843 106.196 101.408 103.657C103.439 100.032 103.755 97.161 104.203 93.0874C104.302 92.168 104.429 90.7041 104.213 90.2303H104.216Z" fill="#127398"/>
</svg>
