<svg width="52" height="58" viewBox="0 0 52 58" fill="none" xmlns="http://www.w3.org/2000/svg">
<g filter="url(#filter0_d_10101_2287)">
<g clip-path="url(#clip0_10101_2287)">
<path d="M5.31836 38.0237C5.42785 38.1403 5.54757 38.2478 5.67138 38.3521C5.54655 38.2488 5.42887 38.1403 5.31836 38.0237Z" fill="#00AAE1"/>
<path d="M5.74805 38.4194C5.89744 38.5371 6.05502 38.6466 6.22284 38.7438C6.05502 38.6466 5.89744 38.5371 5.74805 38.4194Z" fill="#00AAE1"/>
<path d="M45.7842 38.7438C45.952 38.6466 46.1096 38.5381 46.259 38.4194C46.1096 38.5371 45.952 38.6466 45.7842 38.7438Z" fill="#00AAE1"/>
<path d="M39.5586 19.4974C39.5586 19.3316 39.5463 19.1668 39.5259 19.0042C39.5463 19.1668 39.5586 19.3306 39.5586 19.4974Z" fill="#00AAE1"/>
<path d="M38.8339 17.2064C38.8339 17.2064 38.8277 17.1982 38.8257 17.1931C38.8288 17.1972 38.8318 17.2013 38.8339 17.2064Z" fill="#00AAE1"/>
<path d="M13.9849 16.3367C13.9583 16.3582 13.9348 16.3827 13.9082 16.4042C13.9348 16.3827 13.9583 16.3582 13.9849 16.3367Z" fill="#00AAE1"/>
<path d="M38.0982 16.4042C38.0716 16.3827 38.0481 16.3582 38.0215 16.3367C38.0481 16.3582 38.0716 16.3817 38.0982 16.4042Z" fill="#00AAE1"/>
<path d="M38.4931 16.7805C38.4788 16.7651 38.4665 16.7487 38.4512 16.7334C38.4655 16.7487 38.4788 16.7651 38.4931 16.7805Z" fill="#00AAE1"/>
<path d="M39.3159 18.1425C39.3128 18.1322 39.3098 18.123 39.3057 18.1128C39.3098 18.122 39.3118 18.1322 39.3159 18.1425Z" fill="#00AAE1"/>
<path d="M39.3057 31.8861C39.3087 31.8779 39.3108 31.8698 39.3138 31.8616C39.3108 31.8698 39.3087 31.8779 39.3057 31.8861Z" fill="#00AAE1"/>
<path d="M39.4686 18.689C39.4584 18.6409 39.4512 18.5917 39.4399 18.5447C39.4522 18.5917 39.4584 18.6409 39.4686 18.689Z" fill="#00AAE1"/>
<path d="M39.4399 31.4541C39.4512 31.409 39.4584 31.362 39.4676 31.3159C39.4573 31.362 39.4512 31.408 39.4399 31.4541Z" fill="#00AAE1"/>
<path d="M39.5269 30.9948C39.5463 30.8331 39.5596 30.6704 39.5596 30.5046C39.5596 30.6704 39.5473 30.8331 39.5269 30.9948Z" fill="#00AAE1"/>
<path d="M5.27631 37.9754C5.15659 37.8454 5.04608 37.7073 4.9458 37.563C5.04608 37.7073 5.15762 37.8444 5.27631 37.9754Z" fill="#00AAE1"/>
<path d="M47.3618 12.9404L47.3664 12.9485C47.3664 12.9485 47.363 12.9439 47.3618 12.9404Z" fill="#00AAE1"/>
<path d="M46.3364 38.3509C46.4602 38.2476 46.58 38.1401 46.6895 38.0225C46.5789 38.1391 46.4613 38.2476 46.3364 38.3509Z" fill="#00AAE1"/>
<path d="M47.3612 37.0585L39.125 32.3035L47.3612 37.0585Z" fill="#00AAE1"/>
<path d="M47.0713 12.4514C47.0867 12.475 47.0969 12.4985 47.1112 12.521C47.0969 12.4985 47.0857 12.4739 47.0703 12.4514H47.0713Z" fill="#00AAE1"/>
<path d="M26.523 39.9963C26.3501 40.0188 26.1772 40.0301 26.0032 40.0301C25.8293 40.0301 25.6563 40.0188 25.4834 39.9963C25.8282 40.0414 26.1782 40.0414 26.523 39.9963V39.9963Z" fill="#00AAE1"/>
<path d="M13.5556 16.7327C13.5413 16.748 13.528 16.7644 13.5137 16.7797C13.528 16.7644 13.5403 16.748 13.5556 16.7327Z" fill="#00AAE1"/>
<path d="M28.0162 0.998008C27.393 0.638845 26.6982 0.458752 26.0034 0.458752C25.3086 0.458752 24.6138 0.638845 23.9917 0.998008L6.22284 11.2562C6.05502 11.3534 5.89744 11.4618 5.74805 11.5805C5.89744 11.4629 6.05502 11.3534 6.22284 11.2562L23.9917 0.998008C25.237 0.278659 26.7709 0.278659 28.0162 0.998008L45.785 11.2562C45.9528 11.3534 46.1104 11.4629 46.2598 11.5805C46.1104 11.4618 45.9528 11.3534 45.785 11.2562L28.0162 0.998008Z" fill="#00AAE1"/>
<path d="M13.182 17.1931C13.182 17.1931 13.1759 17.2013 13.1738 17.2064C13.1769 17.2023 13.18 17.1982 13.182 17.1931Z" fill="#00AAE1"/>
<path d="M12.883 17.6966C12.6068 18.2471 12.4482 18.8601 12.4482 19.4976V30.5027C12.4482 31.1402 12.6068 31.7521 12.883 32.3036L4.64582 37.0597C4.73075 37.2296 4.82796 37.3923 4.9354 37.5488C4.47596 36.8858 4.21094 36.0927 4.21094 35.2588V14.7415C4.21094 13.9075 4.47596 13.1145 4.9354 12.4514C4.82796 12.608 4.73075 12.7717 4.64582 12.9416L12.883 17.6977V17.6966Z" fill="#009BCC"/>
<path d="M47.3618 37.0595C47.3618 37.0595 47.3659 37.0534 47.367 37.0493C47.281 37.2222 47.1828 37.389 47.0723 37.5487C47.1797 37.3921 47.2769 37.2294 47.3618 37.0595Z" fill="#00AAE1"/>
<path d="M47.582 13.4703C47.5268 13.3087 47.4643 13.149 47.3896 12.9966C47.4633 13.1501 47.5278 13.3077 47.582 13.4703Z" fill="#00AAE1"/>
<path d="M38.8247 32.8068C38.8247 32.8068 38.8308 32.7975 38.8339 32.7935C38.8308 32.7975 38.8278 32.8027 38.8247 32.8068Z" fill="#00AAE1"/>
<path d="M47.7242 14.027C47.6955 13.8725 47.6618 13.719 47.6157 13.5696C47.6618 13.719 47.6966 13.8714 47.7242 14.027Z" fill="#00AAE1"/>
<path d="M46.6895 11.9764C46.58 11.8598 46.4603 11.7513 46.3354 11.6479C46.4603 11.7513 46.579 11.8598 46.6895 11.9764Z" fill="#00AAE1"/>
<path d="M47.062 12.437C46.9617 12.2928 46.8501 12.1556 46.7314 12.0247C46.8512 12.1556 46.9617 12.2928 47.062 12.437Z" fill="#00AAE1"/>
<path d="M47.3608 12.9404C47.2759 12.7716 47.1787 12.6089 47.0723 12.4534C47.1797 12.6089 47.2759 12.7716 47.3608 12.9404Z" fill="#00AAE1"/>
<path d="M47.3882 37.0053C47.4639 36.8507 47.5273 36.6901 47.5826 36.5264C47.5284 36.6901 47.4629 36.8497 47.3882 37.0053Z" fill="#00AAE1"/>
<path d="M46.7314 37.9754C46.8501 37.8444 46.9617 37.7083 47.062 37.563C46.9607 37.7073 46.8512 37.8444 46.7314 37.9754Z" fill="#00AAE1"/>
<path d="M47.7956 35.2585C47.7956 35.4571 47.7782 35.6525 47.7495 35.8459C47.7782 35.6535 47.7956 35.4571 47.7956 35.2585Z" fill="#00AAE1"/>
<path d="M47.6157 36.4314C47.6618 36.2809 47.6966 36.1275 47.7252 35.9719C47.6976 36.1275 47.6618 36.2809 47.6157 36.4314Z" fill="#00AAE1"/>
<path d="M47.7956 14.7403C47.7956 14.5418 47.7782 14.3464 47.7495 14.155C47.7782 14.3474 47.7956 14.5428 47.7956 14.7403Z" fill="#00AAE1"/>
<path d="M13.9082 33.5959C13.9348 33.6174 13.9583 33.643 13.986 33.6645C13.9594 33.643 13.9348 33.6185 13.9082 33.5959Z" fill="#00AAE1"/>
<path d="M38.4521 33.2673C38.4665 33.252 38.4798 33.2346 38.4941 33.2192C38.4798 33.2346 38.4665 33.252 38.4521 33.2673Z" fill="#00AAE1"/>
<path d="M13.5137 33.2192C13.528 33.2346 13.5413 33.252 13.5556 33.2673C13.5413 33.252 13.528 33.2346 13.5137 33.2192Z" fill="#00AAE1"/>
<path d="M38.0215 33.6633C38.0491 33.6418 38.0726 33.6172 38.0993 33.5947C38.0726 33.6172 38.0491 33.6418 38.0215 33.6633Z" fill="#00AAE1"/>
<path d="M5.67143 11.6479C5.54762 11.7513 5.42789 11.8598 5.31738 11.9764C5.42789 11.8598 5.54659 11.7513 5.67143 11.6479Z" fill="#00AAE1"/>
<path d="M5.27631 12.0247C5.15762 12.1556 5.04608 12.2928 4.9458 12.437C5.0471 12.2928 5.15659 12.1556 5.27631 12.0247Z" fill="#00AAE1"/>
<path d="M24.4707 39.7263C24.7981 39.8614 25.1389 39.9514 25.4837 39.9954C25.1389 39.9504 24.7981 39.8604 24.4707 39.7263Z" fill="#00AAE1"/>
<path d="M13.1729 32.7935C13.1729 32.7935 13.179 32.8027 13.1821 32.8068C13.179 32.8027 13.1759 32.7975 13.1729 32.7935Z" fill="#00AAE1"/>
<path d="M47.3608 12.9415L39.1246 17.6965C39.0397 17.5267 38.9425 17.3629 38.834 17.2064C38.831 17.2023 38.8279 17.1982 38.8258 17.1931C38.7256 17.0478 38.613 16.9107 38.4943 16.7797C38.48 16.7643 38.4677 16.748 38.4524 16.7326C38.3429 16.616 38.2232 16.5075 38.0983 16.4042C38.0717 16.3827 38.0482 16.3581 38.0216 16.3366C37.8722 16.2179 37.7146 16.1095 37.5468 16.0122L28.0151 10.5092C27.393 10.15 26.6982 9.96991 26.0034 9.96991V0.45874C26.6982 0.45874 27.393 0.638833 28.0151 0.997997L45.784 11.2561C45.9518 11.3534 46.1094 11.4618 46.2588 11.5805C46.2854 11.602 46.3089 11.6266 46.3355 11.6481C46.4593 11.7514 46.5791 11.8599 46.6896 11.9765C46.7039 11.9919 46.7172 12.0093 46.7315 12.0246C46.8502 12.1556 46.9618 12.2927 47.062 12.437C47.0651 12.4421 47.0682 12.4462 47.0712 12.4513C47.0866 12.4738 47.0979 12.4984 47.1122 12.5209C47.2022 12.657 47.2872 12.7961 47.3608 12.9415Z" fill="#007296"/>
<path d="M47.362 12.9404L47.3608 12.9416L47.362 12.9404Z" fill="#00AAE1"/>
<path d="M23.9917 0.997997C24.6138 0.638833 25.3086 0.45874 26.0034 0.45874V9.96991C25.3086 9.96991 24.6138 10.15 23.9917 10.5092L14.4601 16.0122C14.2922 16.1095 14.1347 16.2179 13.9853 16.3366C13.9587 16.3581 13.9351 16.3816 13.9085 16.4042C13.7847 16.5075 13.664 16.616 13.5545 16.7326C13.5401 16.748 13.5268 16.7643 13.5125 16.7797C13.3938 16.9107 13.2813 17.0478 13.181 17.1931C13.1779 17.1972 13.1748 17.2013 13.1728 17.2064C13.0654 17.3629 12.9681 17.5267 12.8822 17.6965L4.646 12.9404C4.73093 12.7706 4.82814 12.6068 4.93558 12.4503C4.93865 12.4452 4.94172 12.4411 4.94479 12.436C5.04507 12.2917 5.1566 12.1546 5.2753 12.0236C5.28962 12.0082 5.30293 11.9908 5.31725 11.9755C5.42674 11.8588 5.54646 11.7504 5.6713 11.647C5.6979 11.6255 5.72144 11.601 5.74804 11.5795C5.89744 11.4608 6.05502 11.3523 6.22283 11.2551L23.9917 0.997997Z" fill="#008DBA"/>
<path d="M26.0034 40.0301C26.1774 40.0301 26.3503 40.0189 26.5232 39.9964C27.041 39.9288 27.5485 39.76 28.0151 39.4909L37.5468 33.9878C37.7146 33.8906 37.8722 33.7821 38.0216 33.6634C38.0482 33.6419 38.0727 33.6174 38.0993 33.5949C38.2232 33.4915 38.3429 33.3841 38.4524 33.2664C38.4667 33.251 38.48 33.2337 38.4943 33.2183C38.613 33.0873 38.7245 32.9502 38.8259 32.8059C38.8289 32.8018 38.832 32.7967 38.8351 32.7926C38.9425 32.6361 39.0397 32.4724 39.1257 32.3025L47.3619 37.0576C47.2759 37.2264 47.1807 37.3911 47.0723 37.5477C47.0692 37.5528 47.0661 37.5569 47.0631 37.562C47.0661 37.5569 47.0692 37.5528 47.0723 37.5477C47.1797 37.3911 47.2769 37.2284 47.3619 37.0586C47.2769 37.2284 47.1797 37.3922 47.0723 37.5477C47.0692 37.5528 47.0661 37.5569 47.0631 37.562C46.9628 37.7063 46.8513 37.8434 46.7326 37.9744C46.7182 37.9898 46.7049 38.0071 46.6906 38.0225C46.5811 38.1391 46.4614 38.2466 46.3376 38.351C46.311 38.3735 46.2874 38.398 46.2598 38.4195C46.1104 38.5372 45.9528 38.6467 45.785 38.7439L28.0162 49.002C27.5496 49.2712 27.042 49.44 26.5243 49.5075C26.3513 49.53 26.1784 49.5413 26.0044 49.5413V40.0301H26.0034Z" fill="#3BBFEF"/>
<path d="M4.93558 37.5487C4.82814 37.3921 4.73093 37.2294 4.646 37.0596L12.8832 32.3035C12.9681 32.4733 13.0654 32.637 13.1738 32.7936C13.1769 32.7977 13.18 32.8028 13.183 32.8069C13.2833 32.9512 13.3948 33.0883 13.5146 33.2193C13.5289 33.2346 13.5422 33.252 13.5565 33.2674C13.666 33.384 13.7857 33.4915 13.9095 33.5958C13.9361 33.6184 13.9597 33.6429 13.9873 33.6644C14.1367 33.7821 14.2943 33.8916 14.4621 33.9888L16.2722 35.0335L13.5013 41.6069L22.4149 38.5801L23.9937 39.4918C24.1493 39.5819 24.3099 39.6607 24.4726 39.7282C24.8001 39.8633 25.1408 39.9533 25.4856 39.9973C25.6586 40.0198 25.8315 40.0311 26.0055 40.0311V49.5423C25.4846 49.5423 24.9638 49.441 24.4726 49.2394C24.3089 49.1719 24.1493 49.0931 23.9937 49.003L6.22284 38.7438C6.05502 38.6466 5.89744 38.5382 5.74804 38.4195C5.72144 38.398 5.69688 38.3734 5.67028 38.3509C5.54646 38.2476 5.42674 38.1401 5.31725 38.0225C5.30293 38.0071 5.28962 37.9897 5.2753 37.9744C5.1566 37.8434 5.04507 37.7073 4.94479 37.562C4.94172 37.5569 4.93865 37.5528 4.93558 37.5477V37.5487Z" fill="#00AAE1"/>
<path d="M39.125 32.3035C39.1925 32.1674 39.2539 32.0282 39.3071 31.886C39.3102 31.8778 39.3123 31.8696 39.3153 31.8614C39.3634 31.7284 39.4054 31.5933 39.4402 31.4552C39.4514 31.4102 39.4586 31.3631 39.4678 31.3171C39.4903 31.2106 39.5128 31.1042 39.5271 30.9958C39.5476 30.8341 39.5599 30.6714 39.5599 30.5056V19.4974C39.5599 19.3306 39.5476 19.1669 39.5271 19.0042C39.5138 18.8978 39.4913 18.7934 39.4688 18.689C39.4586 18.6409 39.4514 18.5918 39.4402 18.5448C39.4054 18.4087 39.3644 18.2746 39.3163 18.1426C39.3133 18.1324 39.3102 18.1232 39.3061 18.1129C39.2529 17.9717 39.1936 17.8326 39.126 17.6985V17.6965L47.3622 12.9414C47.3622 12.9414 47.3653 12.9465 47.3663 12.9486C47.3745 12.9649 47.3827 12.9813 47.3909 12.9977C47.4656 13.1512 47.528 13.3098 47.5832 13.4715C47.5945 13.5042 47.6068 13.5369 47.617 13.5707C47.6631 13.7201 47.6978 13.8726 47.7255 14.0281C47.7337 14.0711 47.7449 14.112 47.7511 14.156C47.7797 14.3484 47.7971 14.5438 47.7971 14.7413V35.2597C47.7971 35.4582 47.7797 35.6536 47.7511 35.847C47.7449 35.89 47.7337 35.9309 47.7255 35.9729C47.6968 36.1284 47.662 36.2829 47.616 36.4323C47.6058 36.4651 47.5945 36.4958 47.5832 36.5285C47.528 36.6922 47.4645 36.8529 47.3888 37.0074C47.3817 37.0217 47.3745 37.0371 47.3673 37.0514C47.3653 37.0545 47.3632 37.0575 47.3622 37.0606L39.126 32.3055L39.125 32.3035Z" fill="#66CDF5"/>
<path d="M47.3618 37.0586C47.2769 37.2285 47.1797 37.3922 47.0723 37.5478C47.1807 37.3922 47.2759 37.2275 47.3618 37.0576V37.0586Z" fill="#00AAE1"/>
<path d="M47.3608 12.9415C47.2871 12.7962 47.2032 12.657 47.1122 12.5209C47.0978 12.4994 47.0866 12.4749 47.0723 12.4534C47.1797 12.6089 47.2759 12.7716 47.3608 12.9404V12.9415Z" fill="#00AAE1"/>
<path d="M47.062 37.5629C47.062 37.5629 47.0682 37.5537 47.0712 37.5486Z" fill="#00AAE1"/>
</g>
</g>
<defs>
<filter id="filter0_d_10101_2287" x="-3" y="0" width="58" height="58" filterUnits="userSpaceOnUse" color-interpolation-filters="sRGB">
<feFlood flood-opacity="0" result="BackgroundImageFix"/>
<feColorMatrix in="SourceAlpha" type="matrix" values="0 0 0 0 0 0 0 0 0 0 0 0 0 0 0 0 0 0 127 0" result="hardAlpha"/>
<feOffset dy="4"/>
<feGaussianBlur stdDeviation="2"/>
<feComposite in2="hardAlpha" operator="out"/>
<feColorMatrix type="matrix" values="0 0 0 0 0 0 0 0 0 0 0 0 0 0 0 0 0 0 0.25 0"/>
<feBlend mode="normal" in2="BackgroundImageFix" result="effect1_dropShadow_10101_2287"/>
<feBlend mode="normal" in="SourceGraphic" in2="effect1_dropShadow_10101_2287" result="shape"/>
</filter>
<clipPath id="clip0_10101_2287">
<rect width="43.5846" height="49.0826" fill="white" transform="translate(4.21094 0.45874)"/>
</clipPath>
</defs>
</svg>
