<svg width="199" height="29" viewBox="0 0 199 29" fill="none" xmlns="http://www.w3.org/2000/svg">
<path d="M10.2405 28.1328C4.35181 28.1328 0.607666 25.2324 0.29126 20.8555L0.273682 20.6094H4.66821L4.68579 20.7852C4.89673 22.9121 7.16431 24.3184 10.3811 24.3184C13.4397 24.3184 15.5842 22.8066 15.5842 20.627V20.6094C15.5842 18.7812 14.2659 17.6738 10.9963 16.9707L8.27173 16.4082C3.08618 15.3184 0.836182 12.8926 0.836182 9.11328V9.0957C0.836182 4.56055 4.73853 1.50195 10.2229 1.50195C15.8479 1.50195 19.3459 4.57812 19.6624 8.65625L19.6799 8.88477H15.3381L15.303 8.67383C14.9866 6.70508 13.1057 5.29883 10.2053 5.31641C7.39282 5.31641 5.38892 6.63477 5.38892 8.79688V8.81445C5.38892 10.6074 6.67212 11.7324 9.83618 12.4004L12.5608 12.9805C17.9045 14.1055 20.137 16.25 20.137 20.082V20.0996C20.137 25.0391 16.3225 28.1328 10.2405 28.1328ZM32.3362 27.5879C27.9241 27.5879 26.1135 26.1113 26.1135 22.4023V11.6797H23.1252V8.28711H26.1135V3.57617H30.5608V8.28711H34.6213V11.6797H30.5608V21.3652C30.5608 23.2812 31.3167 24.0898 33.1448 24.0898C33.76 24.0898 34.094 24.0723 34.6213 24.0195V27.3945C33.9885 27.5176 33.1799 27.5879 32.3362 27.5879ZM47.1018 27.8867C41.3362 27.8867 37.8557 24.125 37.8557 17.9023V17.8672C37.8557 11.6973 41.3889 7.91797 47.1018 7.91797C52.8323 7.91797 56.3479 11.6797 56.3479 17.8672V17.9023C56.3479 24.125 52.8499 27.8867 47.1018 27.8867ZM47.1018 24.3359C50.1428 24.3359 51.8655 21.9629 51.8655 17.9199V17.8848C51.8655 13.8418 50.1252 11.4512 47.1018 11.4512C44.0608 11.4512 42.3206 13.8418 42.3206 17.8848V17.9199C42.3206 21.9629 44.0608 24.3359 47.1018 24.3359ZM68.9866 27.8867C63.2034 27.8867 59.7932 24.1426 59.7932 17.8672V17.832C59.7932 11.627 63.1858 7.91797 68.969 7.91797C73.9084 7.91797 76.8616 10.6602 77.3538 14.6328V14.7031H73.2229L73.2053 14.6504C72.801 12.7871 71.3772 11.4512 68.9866 11.4512C65.9983 11.4512 64.2405 13.8066 64.2405 17.832V17.8672C64.2405 21.9453 66.0159 24.3359 68.9866 24.3359C71.2542 24.3359 72.6428 23.2988 73.1877 21.2773L73.2229 21.207L77.3538 21.1895L77.3186 21.3301C76.6858 25.2676 73.8557 27.8867 68.9866 27.8867ZM81.6956 27.5V0.851562H86.0725V16.1621H86.3713L93.4553 8.28711H98.5178L90.7834 16.4082L99.0452 27.5H93.7717L87.6018 19.1855L86.0725 20.75V27.5H81.6956Z" fill="#179CCE"/>
<path d="M113.16 28.1328C105.971 28.1328 101.506 23.0352 101.506 14.8438V14.8086C101.506 6.58203 105.953 1.50195 113.143 1.50195C118.908 1.50195 123.285 5.1582 123.883 10.3438V10.4844H119.436L119.418 10.4141C118.768 7.4082 116.342 5.42188 113.143 5.42188C108.836 5.42188 106.147 9.02539 106.147 14.791V14.8262C106.147 20.6094 108.836 24.2129 113.16 24.2129C116.377 24.2129 118.768 22.4199 119.418 19.625L119.436 19.5371H123.883V19.6602C123.215 24.7402 119.014 28.1328 113.16 28.1328ZM128.664 27.5V0.851562H133.041V27.5H128.664ZM144.942 27.8867C140.617 27.8867 138.403 25.2852 138.403 20.7148V8.28711H142.78V19.7129C142.78 22.6836 143.887 24.1953 146.524 24.1953C149.354 24.1953 150.865 22.3672 150.865 19.4844V8.28711H155.242V27.5H150.865V24.582H150.567C149.67 26.6387 147.719 27.8867 144.942 27.8867ZM171.274 27.8164C168.584 27.8164 166.492 26.5859 165.438 24.4941H165.139V27.5H160.762V0.851562H165.139V11.3457H165.438C166.44 9.27148 168.637 7.9707 171.274 7.9707C176.143 7.9707 179.166 11.7676 179.166 17.8848V17.9199C179.166 24.002 176.09 27.8164 171.274 27.8164ZM169.903 24.125C172.891 24.125 174.701 21.7871 174.701 17.9199V17.8848C174.701 14.0176 172.891 11.6621 169.903 11.6621C166.932 11.6621 165.086 14.0352 165.086 17.8848V17.9199C165.086 21.7695 166.932 24.125 169.903 24.125ZM190.803 27.8867C185.916 27.8867 182.963 25.6367 182.594 22.3848V22.3496H186.936L186.953 22.3848C187.41 23.7207 188.694 24.6523 190.873 24.6523C193.053 24.6523 194.565 23.668 194.565 22.2266V22.1914C194.565 21.0664 193.721 20.3281 191.612 19.8535L188.5 19.1504C184.844 18.3418 183.104 16.6191 183.104 13.7891V13.7715C183.104 10.3086 186.268 7.91797 190.803 7.91797C195.479 7.91797 198.274 10.2383 198.555 13.3496V13.3848H194.442L194.424 13.332C194.108 12.1191 192.842 11.1348 190.785 11.1348C188.834 11.1348 187.428 12.084 187.428 13.5254V13.543C187.428 14.668 188.237 15.3535 190.311 15.8281L193.422 16.5137C197.184 17.3574 198.959 18.957 198.959 21.752V21.7871C198.959 25.4434 195.531 27.8867 190.803 27.8867Z" fill="#127398"/>
</svg>
